  0
SECTION
  2
HEADER
  9
$ACADVER
  1
AC1024
  9
$ACADMAINTVER
 70
6
  9
$DWGCODEPAGE
  3
ANSI_1252
  9
$LASTSAVEDBY
  1
ezdxf
  9
$INSBASE
 10
0.0
 20
0.0
 30
0.0
  9
$EXTMIN
 10
1e+20
 20
1e+20
 30
1e+20
  9
$EXTMAX
 10
-1e+20
 20
-1e+20
 30
-1e+20
  9
$LIMMIN
 10
0.0
 20
0.0
  9
$LIMMAX
 10
420.0
 20
297.0
  9
$ORTHOMODE
 70
0
  9
$REGENMODE
 70
1
  9
$FILLMODE
 70
1
  9
$QTEXTMODE
 70
0
  9
$MIRRTEXT
 70
1
  9
$LTSCALE
 40
1.0
  9
$ATTMODE
 70
1
  9
$TEXTSIZE
 40
2.5
  9
$TRACEWID
 40
1.0
  9
$TEXTSTYLE
  7
OpenSans
  9
$CLAYER
  8
0
  9
$CELTYPE
  6
ByLayer
  9
$CECOLOR
 62
256
  9
$CELTSCALE
 40
1.0
  9
$DISPSILH
 70
0
  9
$DIMSCALE
 40
1.0
  9
$DIMASZ
 40
0.175
  9
$DIMEXO
 40
0.125
  9
$DIMDLI
 40
3.75
  9
$DIMRND
 40
0.0
  9
$DIMDLE
 40
0.0
  9
$DIMEXE
 40
0.375
  9
$DIMTP
 40
0.0
  9
$DIMTM
 40
0.0
  9
$DIMTXT
 40
0.25
  9
$DIMCEN
 40
2.5
  9
$DIMTSZ
 40
0.0
  9
$DIMTOL
 70
0
  9
$DIMLIM
 70
0
  9
$DIMTIH
 70
0
  9
$DIMTOH
 70
0
  9
$DIMSE1
 70
0
  9
$DIMSE2
 70
0
  9
$DIMTAD
 70
1
  9
$DIMZIN
 70
12
  9
$DIMBLK
  1
ARCHTICK
  9
$DIMASO
 70
1
  9
$DIMSHO
 70
1
  9
$DIMPOST
  1

  9
$DIMAPOST
  1

  9
$DIMALT
 70
0
  9
$DIMALTD
 70
3
  9
$DIMALTF
 40
0.03937007874
  9
$DIMLFAC
 40
100.0
  9
$DIMTOFL
 70
1
  9
$DIMTVP
 40
0.0
  9
$DIMTIX
 70
0
  9
$DIMSOXD
 70
0
  9
$DIMSAH
 70
0
  9
$DIMBLK1
  1

  9
$DIMBLK2
  1

  9
$DIMSTYLE
  2
EZDXF
  9
$DIMCLRD
 70
0
  9
$DIMCLRE
 70
0
  9
$DIMCLRT
 70
0
  9
$DIMTFAC
 40
0.5
  9
$DIMGAP
 40
0.1
  9
$DIMJUST
 70
0
  9
$DIMSD1
 70
0
  9
$DIMSD2
 70
0
  9
$DIMTOLJ
 70
0
  9
$DIMTZIN
 70
8
  9
$DIMALTZ
 70
0
  9
$DIMALTTZ
 70
0
  9
$DIMUPT
 70
1
  9
$DIMDEC
 70
2
  9
$DIMTDEC
 70
2
  9
$DIMALTU
 70
2
  9
$DIMALTTD
 70
3
  9
$DIMTXSTY
  7
OpenSansCondensed-Light
  9
$DIMAUNIT
 70
0
  9
$DIMADEC
 70
2
  9
$DIMALTRND
 40
0.0
  9
$DIMAZIN
 70
3
  9
$DIMDSEP
 70
46
  9
$DIMATFIT
 70
3
  9
$DIMFRAC
 70
0
  9
$DIMLDRBLK
  1

  9
$DIMLUNIT
 70
2
  9
$DIMLWD
 70
-2
  9
$DIMLWE
 70
-2
  9
$DIMTMOVE
 70
2
  9
$DIMFXL
 40
1.0
  9
$DIMFXLON
 70
0
  9
$DIMJOGANG
 40
0.785398163397
  9
$DIMTFILL
 70
0
  9
$DIMTFILLCLR
 70
0
  9
$DIMARCSYM
 70
0
  9
$DIMLTYPE
  6

  9
$DIMLTEX1
  6

  9
$DIMLTEX2
  6

  9
$DIMTXTDIRECTION
 70
0
  9
$LUNITS
 70
2
  9
$LUPREC
 70
4
  9
$SKETCHINC
 40
1.0
  9
$FILLETRAD
 40
10.0
  9
$AUNITS
 70
0
  9
$AUPREC
 70
2
  9
$MENU
  1
.
  9
$ELEVATION
 40
0.0
  9
$PELEVATION
 40
0.0
  9
$THICKNESS
 40
0.0
  9
$LIMCHECK
 70
0
  9
$CHAMFERA
 40
0.0
  9
$CHAMFERB
 40
0.0
  9
$CHAMFERC
 40
0.0
  9
$CHAMFERD
 40
0.0
  9
$SKPOLY
 70
0
  9
$TDCREATE
 40
2461277.540775463
  9
$TDUCREATE
 40
2458532.153996898
  9
$TDUPDATE
 40
2461277.540775463
  9
$TDUUPDATE
 40
2458532.1544311
  9
$TDINDWG
 40
0.0
  9
$TDUSRTIMER
 40
0.0
  9
$USRTIMER
 70
1
  9
$ANGBASE
 50
0.0
  9
$ANGDIR
 70
0
  9
$PDMODE
 70
0
  9
$PDSIZE
 40
0.0
  9
$PLINEWID
 40
0.0
  9
$SPLFRAME
 70
0
  9
$SPLINETYPE
 70
6
  9
$SPLINESEGS
 70
8
  9
$HANDSEED
  5
155
  9
$SURFTAB1
 70
6
  9
$SURFTAB2
 70
6
  9
$SURFTYPE
 70
6
  9
$SURFU
 70
6
  9
$SURFV
 70
6
  9
$UCSBASE
  2

  9
$UCSNAME
  2

  9
$UCSORG
 10
0.0
 20
0.0
 30
0.0
  9
$UCSXDIR
 10
1.0
 20
0.0
 30
0.0
  9
$UCSYDIR
 10
0.0
 20
1.0
 30
0.0
  9
$UCSORTHOREF
  2

  9
$UCSORTHOVIEW
 70
0
  9
$UCSORGTOP
 10
0.0
 20
0.0
 30
0.0
  9
$UCSORGBOTTOM
 10
0.0
 20
0.0
 30
0.0
  9
$UCSORGLEFT
 10
0.0
 20
0.0
 30
0.0
  9
$UCSORGRIGHT
 10
0.0
 20
0.0
 30
0.0
  9
$UCSORGFRONT
 10
0.0
 20
0.0
 30
0.0
  9
$UCSORGBACK
 10
0.0
 20
0.0
 30
0.0
  9
$PUCSBASE
  2

  9
$PUCSNAME
  2

  9
$PUCSORG
 10
0.0
 20
0.0
 30
0.0
  9
$PUCSXDIR
 10
1.0
 20
0.0
 30
0.0
  9
$PUCSYDIR
 10
0.0
 20
1.0
 30
0.0
  9
$PUCSORTHOREF
  2

  9
$PUCSORTHOVIEW
 70
0
  9
$PUCSORGTOP
 10
0.0
 20
0.0
 30
0.0
  9
$PUCSORGBOTTOM
 10
0.0
 20
0.0
 30
0.0
  9
$PUCSORGLEFT
 10
0.0
 20
0.0
 30
0.0
  9
$PUCSORGRIGHT
 10
0.0
 20
0.0
 30
0.0
  9
$PUCSORGFRONT
 10
0.0
 20
0.0
 30
0.0
  9
$PUCSORGBACK
 10
0.0
 20
0.0
 30
0.0
  9
$USERI1
 70
0
  9
$USERI2
 70
0
  9
$USERI3
 70
0
  9
$USERI4
 70
0
  9
$USERI5
 70
0
  9
$USERR1
 40
0.0
  9
$USERR2
 40
0.0
  9
$USERR3
 40
0.0
  9
$USERR4
 40
0.0
  9
$USERR5
 40
0.0
  9
$WORLDVIEW
 70
1
  9
$SHADEDGE
 70
3
  9
$SHADEDIF
 70
70
  9
$TILEMODE
 70
1
  9
$MAXACTVP
 70
64
  9
$PINSBASE
 10
0.0
 20
0.0
 30
0.0
  9
$PLIMCHECK
 70
0
  9
$PEXTMIN
 10
1e+20
 20
1e+20
 30
1e+20
  9
$PEXTMAX
 10
-1e+20
 20
-1e+20
 30
-1e+20
  9
$PLIMMIN
 10
0.0
 20
0.0
  9
$PLIMMAX
 10
420.0
 20
297.0
  9
$UNITMODE
 70
0
  9
$VISRETAIN
 70
1
  9
$PLINEGEN
 70
0
  9
$PSLTSCALE
 70
1
  9
$TREEDEPTH
 70
3020
  9
$CMLSTYLE
  2
Standard
  9
$CMLJUST
 70
0
  9
$CMLSCALE
 40
20.0
  9
$PROXYGRAPHICS
 70
1
  9
$MEASUREMENT
 70
1
  9
$CELWEIGHT
370
-1
  9
$ENDCAPS
280
0
  9
$JOINSTYLE
280
0
  9
$LWDISPLAY
290
0
  9
$INSUNITS
 70
6
  9
$HYPERLINKBASE
  1

  9
$STYLESHEET
  1

  9
$XEDIT
290
1
  9
$CEPSNTYPE
380
0
  9
$PSTYLEMODE
290
1
  9
$FINGERPRINTGUID
  2
{9C76A1F5-95BE-4C30-AE56-AFF3AD7E39B0}
  9
$VERSIONGUID
  2
{8CD366FB-316D-4CDF-A6A6-0E12901CB819}
  9
$EXTNAMES
290
1
  9
$PSVPSCALE
 40
0.0
  9
$OLESTARTUP
290
0
  9
$SORTENTS
280
127
  9
$INDEXCTL
280
0
  9
$HIDETEXT
280
1
  9
$XCLIPFRAME
280
1
  9
$HALOGAP
280
0
  9
$OBSCOLOR
 70
257
  9
$OBSLTYPE
280
0
  9
$INTERSECTIONDISPLAY
280
0
  9
$INTERSECTIONCOLOR
 70
257
  9
$DIMASSOC
280
2
  9
$PROJECTNAME
  1

  9
$CAMERADISPLAY
290
0
  9
$LENSLENGTH
 40
50.0
  9
$CAMERAHEIGHT
 40
0.0
  9
$STEPSPERSEC
 40
24.0
  9
$STEPSIZE
 40
100.0
  9
$3DDWFPREC
 40
2.0
  9
$PSOLWIDTH
 40
0.005
  9
$PSOLHEIGHT
 40
0.08
  9
$LOFTANG1
 40
1.570796326795
  9
$LOFTANG2
 40
1.570796326795
  9
$LOFTMAG1
 40
0.0
  9
$LOFTMAG2
 40
0.0
  9
$LOFTPARAM
 70
7
  9
$LOFTNORMALS
280
1
  9
$LATITUDE
 40
37.795
  9
$LONGITUDE
 40
-122.394
  9
$NORTHDIRECTION
 40
0.0
  9
$TIMEZONE
 70
-8000
  9
$LIGHTGLYPHDISPLAY
280
1
  9
$TILEMODELIGHTSYNCH
280
1
  9
$CMATERIAL
347
20
  9
$SOLIDHIST
280
0
  9
$SHOWHIST
280
1
  9
$DWFFRAME
280
2
  9
$DGNFRAME
280
2
  9
$REALWORLDSCALE
290
1
  9
$INTERFERECOLOR
 62
256
  9
$CSHADOW
280
0
  9
$SHADOWPLANELOCATION
 40
0.0
  0
ENDSEC
  0
SECTION
  2
CLASSES
  0
CLASS
  1
ACDBDICTIONARYWDFLT
  2
AcDbDictionaryWithDefault
  3
ObjectDBX Classes
 90
0
 91
0
280
0
281
0
  0
CLASS
  1
SUN
  2
AcDbSun
  3
SCENEOE
 90
1153
 91
0
280
0
281
0
  0
CLASS
  1
VISUALSTYLE
  2
AcDbVisualStyle
  3
ObjectDBX Classes
 90
4095
 91
0
280
0
281
0
  0
CLASS
  1
MATERIAL
  2
AcDbMaterial
  3
ObjectDBX Classes
 90
1153
 91
0
280
0
281
0
  0
CLASS
  1
SCALE
  2
AcDbScale
  3
ObjectDBX Classes
 90
1153
 91
0
280
0
281
0
  0
CLASS
  1
TABLESTYLE
  2
AcDbTableStyle
  3
ObjectDBX Classes
 90
4095
 91
0
280
0
281
0
  0
CLASS
  1
MLEADERSTYLE
  2
AcDbMLeaderStyle
  3
ACDB_MLEADERSTYLE_CLASS
 90
4095
 91
0
280
0
281
0
  0
CLASS
  1
DICTIONARYVAR
  2
AcDbDictionaryVar
  3
ObjectDBX Classes
 90
0
 91
0
280
0
281
0
  0
CLASS
  1
CELLSTYLEMAP
  2
AcDbCellStyleMap
  3
ObjectDBX Classes
 90
1152
 91
0
280
0
281
0
  0
CLASS
  1
MENTALRAYRENDERSETTINGS
  2
AcDbMentalRayRenderSettings
  3
SCENEOE
 90
1024
 91
0
280
0
281
0
  0
CLASS
  1
ACDBDETAILVIEWSTYLE
  2
AcDbDetailViewStyle
  3
ObjectDBX Classes
 90
1025
 91
0
280
0
281
0
  0
CLASS
  1
ACDBSECTIONVIEWSTYLE
  2
AcDbSectionViewStyle
  3
ObjectDBX Classes
 90
1025
 91
0
280
0
281
0
  0
CLASS
  1
RASTERVARIABLES
  2
AcDbRasterVariables
  3
ISM
 90
0
 91
0
280
0
281
0
  0
CLASS
  1
ACDBPLACEHOLDER
  2
AcDbPlaceHolder
  3
ObjectDBX Classes
 90
0
 91
0
280
0
281
0
  0
CLASS
  1
LAYOUT
  2
AcDbLayout
  3
ObjectDBX Classes
 90
0
 91
0
280
0
281
0
  0
ENDSEC
  0
SECTION
  2
TABLES
  0
TABLE
  2
VPORT
  5
8
330
0
100
AcDbSymbolTable
 70
1
  0
VPORT
  5
23
330
8
100
AcDbSymbolTableRecord
100
AcDbViewportTableRecord
  2
*Active
 70
0
 10
0.0
 20
0.0
 11
1.0
 21
1.0
 12
0.0
 22
0.0
 13
0.0
 23
0.0
 14
0.5
 24
0.5
 15
0.5
 25
0.5
 16
0.0
 26
0.0
 36
1.0
 17
0.0
 27
0.0
 37
0.0
 40
1000.0
 41
1.34
 42
50.0
 43
0.0
 44
0.0
 50
0.0
 51
0.0
 71
0
 72
1000
 73
1
 74
3
 75
0
 76
0
 77
0
 78
0
281
0
 65
0
146
0.0
  0
ENDTAB
  0
TABLE
  2
LTYPE
  5
2
330
0
100
AcDbSymbolTable
 70
21
  0
LTYPE
  5
24
330
2
100
AcDbSymbolTableRecord
100
AcDbLinetypeTableRecord
  2
ByBlock
 70
0
  3

 72
65
 73
0
 40
0.0
  0
LTYPE
  5
25
330
2
100
AcDbSymbolTableRecord
100
AcDbLinetypeTableRecord
  2
ByLayer
 70
0
  3

 72
65
 73
0
 40
0.0
  0
LTYPE
  5
26
330
2
100
AcDbSymbolTableRecord
100
AcDbLinetypeTableRecord
  2
Continuous
 70
0
  3

 72
65
 73
0
 40
0.0
  0
LTYPE
  5
2F
330
2
100
AcDbSymbolTableRecord
100
AcDbLinetypeTableRecord
  2
CENTER
 70
0
  3
Center ____ _ ____ _ ____ _ ____ _ ____ _ ____
 72
65
 73
4
 40
5.08
 49
3.175
 74
0
 49
-0.635
 74
0
 49
0.635
 74
0
 49
-0.635
 74
0
  0
LTYPE
  5
30
330
2
100
AcDbSymbolTableRecord
100
AcDbLinetypeTableRecord
  2
CENTERX2
 70
0
  3
Center (2x) ________  __  ________  __  ________
 72
65
 73
4
 40
8.89
 49
6.35
 74
0
 49
-0.635
 74
0
 49
1.27
 74
0
 49
-0.635
 74
0
  0
LTYPE
  5
31
330
2
100
AcDbSymbolTableRecord
100
AcDbLinetypeTableRecord
  2
CENTER2
 70
0
  3
Center (.5x) ____ _ ____ _ ____ _ ____ _ ____
 72
65
 73
4
 40
2.54
 49
1.587
 74
0
 49
-0.318
 74
0
 49
0.318
 74
0
 49
-0.318
 74
0
  0
LTYPE
  5
32
330
2
100
AcDbSymbolTableRecord
100
AcDbLinetypeTableRecord
  2
DASHED
 70
0
  3
Dashed __ __ __ __ __ __ __ __ __ __ __ __ __ _
 72
65
 73
2
 40
1.524
 49
1.27
 74
0
 49
-0.254
 74
0
  0
LTYPE
  5
33
330
2
100
AcDbSymbolTableRecord
100
AcDbLinetypeTableRecord
  2
DASHEDX2
 70
0
  3
Dashed (2x) ____  ____  ____  ____  ____  ____
 72
65
 73
2
 40
3.048
 49
2.54
 74
0
 49
-0.508
 74
0
  0
LTYPE
  5
34
330
2
100
AcDbSymbolTableRecord
100
AcDbLinetypeTableRecord
  2
DASHED2
 70
0
  3
Dashed (.5x) _ _ _ _ _ _ _ _ _ _ _ _ _ _
 72
65
 73
2
 40
0.762
 49
0.635
 74
0
 49
-0.127
 74
0
  0
LTYPE
  5
35
330
2
100
AcDbSymbolTableRecord
100
AcDbLinetypeTableRecord
  2
PHANTOM
 70
0
  3
Phantom ______  __  __  ______  __  __  ______
 72
65
 73
6
 40
6.35
 49
3.175
 74
0
 49
-0.635
 74
0
 49
0.635
 74
0
 49
-0.635
 74
0
 49
0.635
 74
0
 49
-0.635
 74
0
  0
LTYPE
  5
36
330
2
100
AcDbSymbolTableRecord
100
AcDbLinetypeTableRecord
  2
PHANTOMX2
 70
0
  3
Phantom (2x)____________    ____    ____    ____________
 72
65
 73
6
 40
10.795
 49
6.35
 74
0
 49
-0.635
 74
0
 49
1.27
 74
0
 49
-0.635
 74
0
 49
1.27
 74
0
 49
-0.635
 74
0
  0
LTYPE
  5
37
330
2
100
AcDbSymbolTableRecord
100
AcDbLinetypeTableRecord
  2
PHANTOM2
 70
0
  3
Phantom (.5x) ___ _ _ ___ _ _ ___ _ _ ___ _ _ ___
 72
65
 73
6
 40
3.175
 49
1.587
 74
0
 49
-0.318
 74
0
 49
0.318
 74
0
 49
-0.318
 74
0
 49
0.318
 74
0
 49
-0.318
 74
0
  0
LTYPE
  5
38
330
2
100
AcDbSymbolTableRecord
100
AcDbLinetypeTableRecord
  2
DASHDOT
 70
0
  3
Dash dot __ . __ . __ . __ . __ . __ . __ . __
 72
65
 73
4
 40
3.556
 49
2.54
 74
0
 49
-0.508
 74
0
 49
0.0
 74
0
 49
-0.508
 74
0
  0
LTYPE
  5
39
330
2
100
AcDbSymbolTableRecord
100
AcDbLinetypeTableRecord
  2
DASHDOTX2
 70
0
  3
Dash dot (2x) ____  .  ____  .  ____  .  ____
 72
65
 73
4
 40
6.096
 49
5.08
 74
0
 49
-0.508
 74
0
 49
0.0
 74
0
 49
-0.508
 74
0
  0
LTYPE
  5
3A
330
2
100
AcDbSymbolTableRecord
100
AcDbLinetypeTableRecord
  2
DASHDOT2
 70
0
  3
Dash dot (.5x) _ . _ . _ . _ . _ . _ . _ . _
 72
65
 73
4
 40
1.778
 49
1.27
 74
0
 49
-0.254
 74
0
 49
0.0
 74
0
 49
-0.254
 74
0
  0
LTYPE
  5
3B
330
2
100
AcDbSymbolTableRecord
100
AcDbLinetypeTableRecord
  2
DOT
 70
0
  3
Dot .  .  .  .  .  .  .  .  .  .  .  .  .  .  .  .
 72
65
 73
2
 40
0.508
 49
0.0
 74
0
 49
-0.508
 74
0
  0
LTYPE
  5
3C
330
2
100
AcDbSymbolTableRecord
100
AcDbLinetypeTableRecord
  2
DOTX2
 70
0
  3
Dot (2x) .    .    .    .    .    .    .    . 
 72
65
 73
2
 40
1.016
 49
0.0
 74
0
 49
-1.016
 74
0
  0
LTYPE
  5
3D
330
2
100
AcDbSymbolTableRecord
100
AcDbLinetypeTableRecord
  2
DOT2
 70
0
  3
Dot (.5) . . . . . . . . . . . . . . . . . . . 
 72
65
 73
2
 40
0.254
 49
0.0
 74
0
 49
-0.254
 74
0
  0
LTYPE
  5
3E
330
2
100
AcDbSymbolTableRecord
100
AcDbLinetypeTableRecord
  2
DIVIDE
 70
0
  3
Divide __ . . __ . . __ . . __ . . __ . . __
 72
65
 73
6
 40
4.064
 49
2.54
 74
0
 49
-0.508
 74
0
 49
0.0
 74
0
 49
-0.508
 74
0
 49
0.0
 74
0
 49
-0.508
 74
0
  0
LTYPE
  5
3F
330
2
100
AcDbSymbolTableRecord
100
AcDbLinetypeTableRecord
  2
DIVIDEX2
 70
0
  3
Divide (2x) ____  . .  ____  . .  ____  . .  ____
 72
65
 73
6
 40
6.604
 49
5.08
 74
0
 49
-0.508
 74
0
 49
0.0
 74
0
 49
-0.508
 74
0
 49
0.0
 74
0
 49
-0.508
 74
0
  0
LTYPE
  5
40
330
2
100
AcDbSymbolTableRecord
100
AcDbLinetypeTableRecord
  2
DIVIDE2
 70
0
  3
Divide(.5x) _ . _ . _ . _ . _ . _ . _ . _
 72
65
 73
6
 40
2.032
 49
1.27
 74
0
 49
-0.254
 74
0
 49
0.0
 74
0
 49
-0.254
 74
0
 49
0.0
 74
0
 49
-0.254
 74
0
  0
ENDTAB
  0
TABLE
  2
LAYER
  5
1
330
0
100
AcDbSymbolTable
 70
7
  0
LAYER
  5
27
330
1
100
AcDbSymbolTableRecord
100
AcDbLayerTableRecord
  2
0
 70
0
 62
7
  6
Continuous
370
-3
390
13
347
21
  0
LAYER
  5
28
330
1
100
AcDbSymbolTableRecord
100
AcDbLayerTableRecord
  2
Defpoints
 70
0
 62
7
  6
Continuous
290
0
370
-3
390
13
347
21
  0
LAYER
  5
8A
330
1
100
AcDbSymbolTableRecord
100
AcDbLayerTableRecord
  2
WALLS
 70
0
 62
7
  6
Continuous
370
-3
390
13
347
21
  0
LAYER
  5
8B
330
1
100
AcDbSymbolTableRecord
100
AcDbLayerTableRecord
  2
OPENINGS
 70
0
 62
1
  6
Continuous
370
-3
390
13
347
21
  0
LAYER
  5
8C
330
1
100
AcDbSymbolTableRecord
100
AcDbLayerTableRecord
  2
SLABS
 70
0
 62
8
  6
Continuous
370
-3
390
13
347
21
  0
LAYER
  5
8D
330
1
100
AcDbSymbolTableRecord
100
AcDbLayerTableRecord
  2
DIMENSIONS
 70
0
 62
3
  6
Continuous
370
-3
390
13
347
21
  0
LAYER
  5
8E
330
1
100
AcDbSymbolTableRecord
100
AcDbLayerTableRecord
  2
LABELS
 70
0
 62
4
  6
Continuous
370
-3
390
13
347
21
  0
ENDTAB
  0
TABLE
  2
STYLE
  5
5
330
0
100
AcDbSymbolTable
 70
26
  0
STYLE
  5
29
330
5
100
AcDbSymbolTableRecord
100
AcDbTextStyleTableRecord
  2
Standard
 70
0
 40
0.0
 41
1.0
 50
0.0
 71
0
 42
2.5
  3
txt
  4

  0
STYLE
  5
41
330
5
100
AcDbSymbolTableRecord
100
AcDbTextStyleTableRecord
  2
OpenSans-Light
 70
0
 40
0.0
 41
1.0
 50
0.0
 71
0
 42
2.5
  3
OpenSans-Light.ttf
  4

  0
STYLE
  5
42
330
5
100
AcDbSymbolTableRecord
100
AcDbTextStyleTableRecord
  2
OpenSans-Light-Italic
 70
0
 40
0.0
 41
1.0
 50
0.0
 71
0
 42
2.5
  3
OpenSans-LightItalic.ttf
  4

  0
STYLE
  5
43
330
5
100
AcDbSymbolTableRecord
100
AcDbTextStyleTableRecord
  2
OpenSans
 70
0
 40
0.0
 41
1.0
 50
0.0
 71
0
 42
2.5
  3
OpenSans-Regular.ttf
  4

  0
STYLE
  5
44
330
5
100
AcDbSymbolTableRecord
100
AcDbTextStyleTableRecord
  2
OpenSans-Italic
 70
0
 40
0.0
 41
1.0
 50
0.0
 71
0
 42
2.5
  3
OpenSans-Italic.ttf
  4

  0
STYLE
  5
45
330
5
100
AcDbSymbolTableRecord
100
AcDbTextStyleTableRecord
  2
OpenSans-SemiBold
 70
0
 40
0.0
 41
1.0
 50
0.0
 71
0
 42
2.5
  3
OpenSans-SemiBold.ttf
  4

  0
STYLE
  5
46
330
5
100
AcDbSymbolTableRecord
100
AcDbTextStyleTableRecord
  2
OpenSans-SemiBoldItalic
 70
0
 40
0.0
 41
1.0
 50
0.0
 71
0
 42
2.5
  3
OpenSans-SemiBoldItalic.ttf
  4

  0
STYLE
  5
47
330
5
100
AcDbSymbolTableRecord
100
AcDbTextStyleTableRecord
  2
OpenSans-Bold
 70
0
 40
0.0
 41
1.0
 50
0.0
 71
0
 42
2.5
  3
OpenSans-Bold.ttf
  4

  0
STYLE
  5
48
330
5
100
AcDbSymbolTableRecord
100
AcDbTextStyleTableRecord
  2
OpenSans-BoldItalic
 70
0
 40
0.0
 41
1.0
 50
0.0
 71
0
 42
2.5
  3
OpenSans-BoldItalic.ttf
  4

  0
STYLE
  5
49
330
5
100
AcDbSymbolTableRecord
100
AcDbTextStyleTableRecord
  2
OpenSans-ExtraBold
 70
0
 40
0.0
 41
1.0
 50
0.0
 71
0
 42
2.5
  3
OpenSans-ExtraBold.ttf
  4

  0
STYLE
  5
4A
330
5
100
AcDbSymbolTableRecord
100
AcDbTextStyleTableRecord
  2
OpenSans-ExtraBoldItalic
 70
0
 40
0.0
 41
1.0
 50
0.0
 71
0
 42
2.5
  3
OpenSans-ExtraBoldItalic.ttf
  4

  0
STYLE
  5
4B
330
5
100
AcDbSymbolTableRecord
100
AcDbTextStyleTableRecord
  2
OpenSansCondensed-Bold
 70
0
 40
0.0
 41
1.0
 50
0.0
 71
0
 42
2.5
  3
OpenSansCondensed-Bold.ttf
  4

  0
STYLE
  5
4C
330
5
100
AcDbSymbolTableRecord
100
AcDbTextStyleTableRecord
  2
OpenSansCondensed-Light
 70
0
 40
0.0
 41
1.0
 50
0.0
 71
0
 42
2.5
  3
OpenSansCondensed-Light.ttf
  4

  0
STYLE
  5
4D
330
5
100
AcDbSymbolTableRecord
100
AcDbTextStyleTableRecord
  2
OpenSansCondensed-Italic
 70
0
 40
0.0
 41
1.0
 50
0.0
 71
0
 42
2.5
  3
OpenSansCondensed-LightItalic.ttf
  4

  0
STYLE
  5
4E
330
5
100
AcDbSymbolTableRecord
100
AcDbTextStyleTableRecord
  2
LiberationSans
 70
0
 40
0.0
 41
1.0
 50
0.0
 71
0
 42
2.5
  3
LiberationSans-Regular.ttf
  4

  0
STYLE
  5
4F
330
5
100
AcDbSymbolTableRecord
100
AcDbTextStyleTableRecord
  2
LiberationSans-Bold
 70
0
 40
0.0
 41
1.0
 50
0.0
 71
0
 42
2.5
  3
LiberationSans-Bold.ttf
  4

  0
STYLE
  5
50
330
5
100
AcDbSymbolTableRecord
100
AcDbTextStyleTableRecord
  2
LiberationSans-BoldItalic
 70
0
 40
0.0
 41
1.0
 50
0.0
 71
0
 42
2.5
  3
LiberationSans-BoldItalic.ttf
  4

  0
STYLE
  5
51
330
5
100
AcDbSymbolTableRecord
100
AcDbTextStyleTableRecord
  2
LiberationSans-Italic
 70
0
 40
0.0
 41
1.0
 50
0.0
 71
0
 42
2.5
  3
LiberationSans-Italic.ttf
  4

  0
STYLE
  5
52
330
5
100
AcDbSymbolTableRecord
100
AcDbTextStyleTableRecord
  2
LiberationSerif
 70
0
 40
0.0
 41
1.0
 50
0.0
 71
0
 42
2.5
  3
LiberationSerif-Regular.ttf
  4

  0
STYLE
  5
53
330
5
100
AcDbSymbolTableRecord
100
AcDbTextStyleTableRecord
  2
LiberationSerif-Bold
 70
0
 40
0.0
 41
1.0
 50
0.0
 71
0
 42
2.5
  3
LiberationSerif-Bold.ttf
  4

  0
STYLE
  5
54
330
5
100
AcDbSymbolTableRecord
100
AcDbTextStyleTableRecord
  2
LiberationSerif-BoldItalic
 70
0
 40
0.0
 41
1.0
 50
0.0
 71
0
 42
2.5
  3
LiberationSerif-BoldItalic.ttf
  4

  0
STYLE
  5
55
330
5
100
AcDbSymbolTableRecord
100
AcDbTextStyleTableRecord
  2
LiberationSerif-Italic
 70
0
 40
0.0
 41
1.0
 50
0.0
 71
0
 42
2.5
  3
LiberationSerif-Italic.ttf
  4

  0
STYLE
  5
56
330
5
100
AcDbSymbolTableRecord
100
AcDbTextStyleTableRecord
  2
LiberationMono
 70
0
 40
0.0
 41
1.0
 50
0.0
 71
0
 42
2.5
  3
LiberationMono-Regular.ttf
  4

  0
STYLE
  5
57
330
5
100
AcDbSymbolTableRecord
100
AcDbTextStyleTableRecord
  2
LiberationMono-Bold
 70
0
 40
0.0
 41
1.0
 50
0.0
 71
0
 42
2.5
  3
LiberationMono-Bold.ttf
  4

  0
STYLE
  5
58
330
5
100
AcDbSymbolTableRecord
100
AcDbTextStyleTableRecord
  2
LiberationMono-BoldItalic
 70
0
 40
0.0
 41
1.0
 50
0.0
 71
0
 42
2.5
  3
LiberationMono-BoldItalic.ttf
  4

  0
STYLE
  5
59
330
5
100
AcDbSymbolTableRecord
100
AcDbTextStyleTableRecord
  2
LiberationMono-Italic
 70
0
 40
0.0
 41
1.0
 50
0.0
 71
0
 42
2.5
  3
LiberationMono-Italic.ttf
  4

  0
ENDTAB
  0
TABLE
  2
VIEW
  5
7
330
0
100
AcDbSymbolTable
 70
0
  0
ENDTAB
  0
TABLE
  2
UCS
  5
6
330
0
100
AcDbSymbolTable
 70
0
  0
ENDTAB
  0
TABLE
  2
APPID
  5
3
330
0
100
AcDbSymbolTable
 70
3
  0
APPID
  5
2A
330
3
100
AcDbSymbolTableRecord
100
AcDbRegAppTableRecord
  2
ACAD
 70
0
  0
APPID
  5
152
330
3
100
AcDbSymbolTableRecord
100
AcDbRegAppTableRecord
  2
HATCHBACKGROUNDCOLOR
 70
0
  0
APPID
  5
153
330
3
100
AcDbSymbolTableRecord
100
AcDbRegAppTableRecord
  2
EZDXF
 70
0
  0
ENDTAB
  0
TABLE
  2
DIMSTYLE
  5
4
330
0
100
AcDbSymbolTable
 70
12
100
AcDbDimStyleTable
  0
DIMSTYLE
105
2B
330
4
100
AcDbSymbolTableRecord
100
AcDbDimStyleTableRecord
  2
Standard
 70
0
 40
1.0
 41
2.5
 42
0.625
 43
3.75
 44
1.25
 45
0.0
 46
0.0
 47
0.0
 48
0.0
 49
2.5
140
2.5
141
2.5
142
0.0
143
0.03937007874
144
1.0
145
0.0
146
1.0
147
0.625
148
0.0
 69
0
 70
0
 71
0
 72
0
 73
0
 74
0
 75
0
 76
0
 77
1
 78
8
 79
3
170
0
171
3
172
1
173
0
174
0
175
0
176
0
177
0
178
0
179
2
271
2
272
2
273
2
274
3
275
0
276
0
277
2
278
44
279
0
280
0
281
0
282
0
283
0
284
8
285
0
286
0
288
0
289
3
290
0
371
-2
372
-2
  0
DIMSTYLE
105
73
330
4
100
AcDbSymbolTableRecord
100
AcDbDimStyleTableRecord
  2
EZDXF
 70
0
 40
1.0
 41
0.175
 42
0.125
 43
3.75
 44
0.375
 45
0.0
 46
0.0
 47
0.0
 48
0.0
 49
2.5
140
0.25
141
2.5
142
0.0
143
0.03937007874
144
100.0
145
0.0
146
0.5
147
0.1
148
0.0
 69
0
 70
0
 71
0
 72
0
 73
0
 74
0
 75
0
 76
0
 77
1
 78
12
 79
3
170
0
171
3
172
1
173
0
174
0
175
0
176
0
177
0
178
0
179
2
271
2
272
2
273
2
274
3
275
0
276
0
277
2
278
46
279
2
280
0
281
0
282
0
283
0
284
8
285
0
286
0
288
1
289
3
290
0
340
4C
342
74
371
-2
372
-2
  0
DIMSTYLE
105
7C
330
4
100
AcDbSymbolTableRecord
100
AcDbDimStyleTableRecord
  2
EZ_M_100_H25_CM
 70
0
 40
1.0
 41
0.25
 42
0.125
 43
3.75
 44
0.375
 45
0.0
 46
0.0
 47
0.0
 48
0.0
 49
2.5
140
0.25
141
2.5
142
0.125
143
0.03937007874
144
100.0
145
0.0
146
0.5
147
0.1
148
0.0
 69
0
 70
0
 71
0
 72
0
 73
0
 74
0
 75
0
 76
0
 77
1
 78
12
 79
3
170
0
171
3
172
1
173
0
174
0
175
0
176
0
177
0
178
0
179
2
271
2
272
2
273
2
274
3
275
0
276
0
277
2
278
46
279
2
280
0
281
0
282
0
283
0
284
8
285
0
286
0
288
1
289
3
290
0
340
4C
371
-2
372
-2
  0
DIMSTYLE
105
7D
330
4
100
AcDbSymbolTableRecord
100
AcDbDimStyleTableRecord
  2
EZ_M_50_H25_CM
 70
0
 40
1.0
 41
0.125
 42
0.0625
 43
3.75
 44
0.1875
 45
0.0
 46
0.0
 47
0.0
 48
0.0
 49
2.5
140
0.125
141
2.5
142
0.0625
143
0.03937007874
144
100.0
145
0.0
146
0.5
147
0.05
148
0.0
 69
0
 70
0
 71
0
 72
0
 73
0
 74
0
 75
0
 76
0
 77
1
 78
12
 79
3
170
0
171
3
172
1
173
0
174
0
175
0
176
0
177
0
178
0
179
2
271
2
272
2
273
2
274
3
275
0
276
0
277
2
278
46
279
2
280
0
281
0
282
0
283
0
284
8
285
0
286
0
288
1
289
3
290
0
340
4C
371
-2
372
-2
  0
DIMSTYLE
105
7E
330
4
100
AcDbSymbolTableRecord
100
AcDbDimStyleTableRecord
  2
EZ_M_25_H25_CM
 70
0
 40
1.0
 41
0.0625
 42
0.03125
 43
3.75
 44
0.09375
 45
0.0
 46
0.0
 47
0.0
 48
0.0
 49
2.5
140
0.0625
141
2.5
142
0.03125
143
0.03937007874
144
100.0
145
0.0
146
0.5
147
0.025
148
0.0
 69
0
 70
0
 71
0
 72
0
 73
0
 74
0
 75
0
 76
0
 77
1
 78
12
 79
3
170
0
171
3
172
1
173
0
174
0
175
0
176
0
177
0
178
0
179
2
271
2
272
2
273
2
274
3
275
0
276
0
277
2
278
46
279
2
280
0
281
0
282
0
283
0
284
8
285
0
286
0
288
1
289
3
290
0
340
4C
371
-2
372
-2
  0
DIMSTYLE
105
7F
330
4
100
AcDbSymbolTableRecord
100
AcDbDimStyleTableRecord
  2
EZ_M_20_H25_CM
 70
0
 40
1.0
 41
0.05
 42
0.025
 43
3.75
 44
0.07500000000000001
 45
0.0
 46
0.0
 47
0.0
 48
0.0
 49
2.5
140
0.05
141
2.5
142
0.025
143
0.03937007874
144
100.0
145
0.0
146
0.5
147
0.020000000000000004
148
0.0
 69
0
 70
0
 71
0
 72
0
 73
0
 74
0
 75
0
 76
0
 77
1
 78
12
 79
3
170
0
171
3
172
1
173
0
174
0
175
0
176
0
177
0
178
0
179
2
271
2
272
2
273
2
274
3
275
0
276
0
277
2
278
46
279
2
280
0
281
0
282
0
283
0
284
8
285
0
286
0
288
1
289
3
290
0
340
4C
371
-2
372
-2
  0
DIMSTYLE
105
80
330
4
100
AcDbSymbolTableRecord
100
AcDbDimStyleTableRecord
  2
EZ_M_10_H25_CM
 70
0
 40
1.0
 41
0.025
 42
0.0125
 43
3.75
 44
0.037500000000000006
 45
0.0
 46
0.0
 47
0.0
 48
0.0
 49
2.5
140
0.025
141
2.5
142
0.0125
143
0.03937007874
144
100.0
145
0.0
146
0.5
147
0.010000000000000002
148
0.0
 69
0
 70
0
 71
0
 72
0
 73
0
 74
0
 75
0
 76
0
 77
1
 78
12
 79
3
170
0
171
3
172
1
173
0
174
0
175
0
176
0
177
0
178
0
179
2
271
2
272
2
273
2
274
3
275
0
276
0
277
2
278
46
279
2
280
0
281
0
282
0
283
0
284
8
285
0
286
0
288
1
289
3
290
0
340
4C
371
-2
372
-2
  0
DIMSTYLE
105
81
330
4
100
AcDbSymbolTableRecord
100
AcDbDimStyleTableRecord
  2
EZ_M_5_H25_CM
 70
0
 40
1.0
 41
0.0125
 42
0.00625
 43
3.75
 44
0.018750000000000003
 45
0.0
 46
0.0
 47
0.0
 48
0.0
 49
2.5
140
0.0125
141
2.5
142
0.00625
143
0.03937007874
144
100.0
145
0.0
146
0.5
147
0.005000000000000001
148
0.0
 69
0
 70
0
 71
0
 72
0
 73
0
 74
0
 75
0
 76
0
 77
1
 78
12
 79
3
170
0
171
3
172
1
173
0
174
0
175
0
176
0
177
0
178
0
179
2
271
2
272
2
273
2
274
3
275
0
276
0
277
2
278
46
279
2
280
0
281
0
282
0
283
0
284
8
285
0
286
0
288
1
289
3
290
0
340
4C
371
-2
372
-2
  0
DIMSTYLE
105
82
330
4
100
AcDbSymbolTableRecord
100
AcDbDimStyleTableRecord
  2
EZ_M_1_H25_CM
 70
0
 40
1.0
 41
0.0025
 42
0.00125
 43
3.75
 44
0.00375
 45
0.0
 46
0.0
 47
0.0
 48
0.0
 49
2.5
140
0.0025
141
2.5
142
0.00125
143
0.03937007874
144
100.0
145
0.0
146
0.5
147
0.001
148
0.0
 69
0
 70
0
 71
0
 72
0
 73
0
 74
0
 75
0
 76
0
 77
1
 78
12
 79
3
170
0
171
3
172
1
173
0
174
0
175
0
176
0
177
0
178
0
179
2
271
2
272
2
273
2
274
3
275
0
276
0
277
2
278
46
279
2
280
0
281
0
282
0
283
0
284
8
285
0
286
0
288
1
289
3
290
0
340
4C
371
-2
372
-2
  0
DIMSTYLE
105
83
330
4
100
AcDbSymbolTableRecord
100
AcDbDimStyleTableRecord
  2
EZ_RADIUS
 70
0
 40
1.0
 41
0.25
 42
0.125
 43
3.75
 44
0.375
 45
0.0
 46
0.0
 47
0.0
 48
0.0
 49
2.5
140
0.25
141
0.0
142
0.0
143
0.03937007874
144
100.0
145
0.0
146
0.5
147
0.1
148
0.0
 69
0
 70
0
 71
0
 72
0
 73
0
 74
0
 75
0
 76
0
 77
1
 78
12
 79
3
170
0
171
3
172
0
173
0
174
0
175
0
176
0
177
0
178
0
179
2
271
2
272
2
273
2
274
3
275
0
276
0
277
2
278
46
279
1
280
0
281
0
282
0
283
0
284
8
285
0
286
0
288
1
289
3
290
0
340
4C
342
84
371
-2
372
-2
  0
DIMSTYLE
105
88
330
4
100
AcDbSymbolTableRecord
100
AcDbDimStyleTableRecord
  2
EZ_RADIUS_INSIDE
 70
0
 40
1.0
 41
0.25
 42
0.125
 43
3.75
 44
0.375
 45
0.0
 46
0.0
 47
0.0
 48
0.0
 49
2.5
140
0.25
141
0.0
142
0.0
143
0.03937007874
144
100.0
145
0.0
146
0.5
147
0.1
148
0.0
 69
0
 70
0
 71
0
 72
0
 73
0
 74
0
 75
0
 76
0
 77
0
 78
12
 79
3
170
0
171
3
172
0
173
0
174
1
175
0
176
0
177
0
178
0
179
2
271
2
272
2
273
2
274
3
275
0
276
0
277
2
278
46
279
0
280
0
281
0
282
0
283
0
284
8
285
0
286
0
288
1
289
0
290
0
340
4C
342
84
371
-2
372
-2
  0
DIMSTYLE
105
89
330
4
100
AcDbSymbolTableRecord
100
AcDbDimStyleTableRecord
  2
EZ_CURVED
 70
0
 40
1.0
 41
0.25
 42
0.125
 43
3.75
 44
0.375
 45
0.0
 46
0.0
 47
0.0
 48
0.0
 49
2.5
140
0.25
141
2.5
142
0.0
143
0.03937007874
144
100.0
145
0.0
146
0.5
147
0.1
148
0.0
 69
0
 70
0
 71
0
 72
0
 73
0
 74
0
 75
0
 76
0
 77
1
 78
12
 79
2
 90
2
170
0
171
3
172
1
173
0
174
0
175
0
176
0
177
0
178
0
179
2
271
2
272
2
273
2
274
3
275
0
276
0
277
2
278
46
279
2
280
0
281
0
282
0
283
0
284
8
285
0
286
0
288
1
289
3
290
0
340
4C
371
-2
372
-2
  0
ENDTAB
  0
TABLE
  2
BLOCK_RECORD
  5
9
330
0
100
AcDbSymbolTable
 70
5
  0
BLOCK_RECORD
  5
17
330
9
100
AcDbSymbolTableRecord
100
AcDbBlockTableRecord
  2
*Model_Space
340
1A
 70
0
280
1
281
0
  0
BLOCK_RECORD
  5
1B
330
9
100
AcDbSymbolTableRecord
100
AcDbBlockTableRecord
  2
*Paper_Space
340
1E
 70
0
280
1
281
0
  0
BLOCK_RECORD
  5
74
330
9
100
AcDbSymbolTableRecord
100
AcDbBlockTableRecord
  2
_ARCHTICK
340
0
 70
0
280
1
281
0
  0
BLOCK_RECORD
  5
78
330
9
100
AcDbSymbolTableRecord
100
AcDbBlockTableRecord
  2
_CLOSEDFILLED
340
0
 70
0
280
1
281
0
  0
BLOCK_RECORD
  5
84
330
9
100
AcDbSymbolTableRecord
100
AcDbBlockTableRecord
  2
_CLOSEDBLANK
340
0
 70
0
280
1
281
0
  0
ENDTAB
  0
ENDSEC
  0
SECTION
  2
BLOCKS
  0
BLOCK
  5
18
330
17
100
AcDbEntity
  8
0
100
AcDbBlockBegin
  2
*Model_Space
 70
0
 10
0.0
 20
0.0
 30
0.0
  3
*Model_Space
  1

  0
ENDBLK
  5
19
330
17
100
AcDbEntity
  8
0
100
AcDbBlockEnd
  0
BLOCK
  5
1C
330
1B
100
AcDbEntity
  8
0
100
AcDbBlockBegin
  2
*Paper_Space
 70
0
 10
0.0
 20
0.0
 30
0.0
  3
*Paper_Space
  1

  0
ENDBLK
  5
1D
330
1B
100
AcDbEntity
  8
0
100
AcDbBlockEnd
  0
BLOCK
  5
75
330
74
100
AcDbEntity
  8
0
100
AcDbBlockBegin
  2
_ARCHTICK
 70
0
 10
0.0
 20
0.0
 30
0.0
  3
_ARCHTICK
  1

  0
LWPOLYLINE
  5
77
330
74
100
AcDbEntity
  8
0
  6
BYBLOCK
 62
0
100
AcDbPolyline
 90
2
 70
0
 43
0.15
 10
-0.5
 20
-0.5
 10
0.5
 20
0.5
  0
ENDBLK
  5
76
330
74
100
AcDbEntity
  8
0
100
AcDbBlockEnd
  0
BLOCK
  5
79
330
78
100
AcDbEntity
  8
0
100
AcDbBlockBegin
  2
_CLOSEDFILLED
 70
0
 10
0.0
 20
0.0
 30
0.0
  3
_CLOSEDFILLED
  1

  0
SOLID
  5
7B
330
78
100
AcDbEntity
  8
0
  6
BYBLOCK
 62
0
100
AcDbTrace
 10
-1.0
 20
0.16439898372402537
 30
0.0
 11
0.0
 21
0.0
 31
0.0
 12
-1.0
 22
-0.16439898372402537
 32
0.0
 13
-1.0
 23
-0.16439898372402537
 33
0.0
  0
ENDBLK
  5
7A
330
78
100
AcDbEntity
  8
0
100
AcDbBlockEnd
  0
BLOCK
  5
85
330
84
100
AcDbEntity
  8
0
100
AcDbBlockBegin
  2
_CLOSEDBLANK
 70
0
 10
0.0
 20
0.0
 30
0.0
  3
_CLOSEDBLANK
  1

  0
LWPOLYLINE
  5
87
330
84
100
AcDbEntity
  8
0
  6
BYBLOCK
 62
0
100
AcDbPolyline
 90
3
 70
1
 10
-1.0
 20
0.16439898372402537
 10
0.0
 20
0.0
 10
-1.0
 20
-0.16439898372402537
  0
ENDBLK
  5
86
330
84
100
AcDbEntity
  8
0
100
AcDbBlockEnd
  0
ENDSEC
  0
SECTION
  2
ENTITIES
  0
LWPOLYLINE
  5
8F
330
17
100
AcDbEntity
  8
WALLS
100
AcDbPolyline
 90
4
 70
1
 10
-5.0991
 20
-2.4413
 10
-4.813
 20
-2.4413
 10
-4.813
 20
5.7087
 10
-5.0991
 20
5.7087
  0
TEXT
  5
90
330
17
100
AcDbEntity
  8
LABELS
100
AcDbText
 10
-4.956049999999999
 20
1.6337000000000002
 30
0.0
 40
0.06
  1
wall_00 226mm
 11
-4.956049999999999
 21
1.6337000000000002
 31
0.0
100
AcDbText
  0
LWPOLYLINE
  5
91
330
17
100
AcDbEntity
  8
WALLS
100
AcDbPolyline
 90
4
 70
1
 10
-9.1875
 20
-3.7413
 10
-8.889
 20
-3.7413
 10
-8.889
 20
5.8587
 10
-9.1875
 20
5.8587
  0
TEXT
  5
92
330
17
100
AcDbEntity
  8
LABELS
100
AcDbText
 10
-9.03825
 20
1.0587
 30
0.0
 40
0.06
  1
wall_01 238mm
 11
-9.03825
 21
1.0587
 31
0.0
100
AcDbText
  0
LWPOLYLINE
  5
93
330
17
100
AcDbEntity
  8
WALLS
100
AcDbPolyline
 90
4
 70
1
 10
-9.1892
 20
5.4585
 10
-9.1892
 20
5.8868
 10
5.7108
 20
5.8868
 10
5.7108
 20
5.4585
  0
TEXT
  5
94
330
17
100
AcDbEntity
  8
LABELS
100
AcDbText
 10
-1.7391999999999999
 20
5.67265
 30
0.0
 40
0.06
  1
wall_02 368mm
 11
-1.7391999999999999
 21
5.67265
 31
0.0
100
AcDbText
  0
LWPOLYLINE
  5
95
330
17
100
AcDbEntity
  8
WALLS
100
AcDbPolyline
 90
4
 70
1
 10
-1.0892
 20
1.5142
 10
-1.0892
 20
1.7567
 10
7.3108
 20
1.7567
 10
7.3108
 20
1.5142
  0
TEXT
  5
96
330
17
100
AcDbEntity
  8
LABELS
100
AcDbText
 10
3.1108000000000002
 20
1.63545
 30
0.0
 40
0.06
  1
wall_03 182mm
 11
3.1108000000000002
 21
1.63545
 31
0.0
100
AcDbText
  0
LWPOLYLINE
  5
97
330
17
100
AcDbEntity
  8
WALLS
100
AcDbPolyline
 90
4
 70
1
 10
3.6449
 20
-3.7413
 10
3.8839
 20
-3.7413
 10
3.8839
 20
1.7587
 10
3.6449
 20
1.7587
  0
TEXT
  5
98
330
17
100
AcDbEntity
  8
LABELS
100
AcDbText
 10
3.7644
 20
-0.9913
 30
0.0
 40
0.06
  1
wall_04 179mm
 11
3.7644
 21
-0.9913
 31
0.0
100
AcDbText
  0
LWPOLYLINE
  5
99
330
17
100
AcDbEntity
  8
WALLS
100
AcDbPolyline
 90
4
 70
1
 10
0.0845
 20
-3.7413
 10
0.436
 20
-3.7413
 10
0.436
 20
3.2087
 10
0.0845
 20
3.2087
  0
TEXT
  5
9A
330
17
100
AcDbEntity
  8
LABELS
100
AcDbText
 10
0.26025
 20
-0.2663
 30
0.0
 40
0.06
  1
wall_05 172mm
 11
0.26025
 21
-0.2663
 31
0.0
100
AcDbText
  0
LWPOLYLINE
  5
9B
330
17
100
AcDbEntity
  8
WALLS
100
AcDbPolyline
 90
4
 70
1
 10
0.9108
 20
-3.9267
 10
0.9108
 20
-3.6744
 10
5.6608
 20
-3.6744
 10
5.6608
 20
-3.9267
  0
TEXT
  5
9C
330
17
100
AcDbEntity
  8
LABELS
100
AcDbText
 10
3.2858
 20
-3.80055
 30
0.0
 40
0.06
  1
wall_06 192mm
 11
3.2858
 21
-3.80055
 31
0.0
100
AcDbText
  0
LWPOLYLINE
  5
9D
330
17
100
AcDbEntity
  8
WALLS
100
AcDbPolyline
 90
4
 70
1
 10
-9.1392
 20
-2.3896
 10
-9.1392
 20
-2.1609
 10
-4.7892
 20
-2.1609
 10
-4.7892
 20
-2.3896
  0
TEXT
  5
9E
330
17
100
AcDbEntity
  8
LABELS
100
AcDbText
 10
-6.9642
 20
-2.2752499999999998
 30
0.0
 40
0.06
  1
wall_07 164mm
 11
-6.9642
 21
-2.2752499999999998
 31
0.0
100
AcDbText
  0
LWPOLYLINE
  5
9F
330
17
100
AcDbEntity
  8
WALLS
100
AcDbPolyline
 90
4
 70
1
 10
0.8608
 20
-5.0245
 10
0.8608
 20
-4.9345
 10
7.4608
 20
-4.9345
 10
7.4608
 20
-5.0245
  0
TEXT
  5
A0
330
17
100
AcDbEntity
  8
LABELS
100
AcDbText
 10
4.1608
 20
-4.9795
 30
0.0
 40
0.06
  1
wall_08
 11
4.1608
 21
-4.9795
 31
0.0
100
AcDbText
  0
LWPOLYLINE
  5
A1
330
17
100
AcDbEntity
  8
WALLS
100
AcDbPolyline
 90
4
 70
1
 10
-8.9892
 20
3.6495
 10
-8.9892
 20
3.9078
 10
-5.0392
 20
3.9078
 10
-5.0392
 20
3.6495
  0
TEXT
  5
A2
330
17
100
AcDbEntity
  8
LABELS
100
AcDbText
 10
-7.014200000000001
 20
3.77865
 30
0.0
 40
0.06
  1
wall_09 198mm
 11
-7.014200000000001
 21
3.77865
 31
0.0
100
AcDbText
  0
LWPOLYLINE
  5
A3
330
17
100
AcDbEntity
  8
WALLS
100
AcDbPolyline
 90
4
 70
1
 10
5.6212
 20
-3.7413
 10
5.9071
 20
-3.7413
 10
5.9071
 20
1.5587
 10
5.6212
 20
1.5587
  0
TEXT
  5
A4
330
17
100
AcDbEntity
  8
LABELS
100
AcDbText
 10
5.76415
 20
-1.0913
 30
0.0
 40
0.06
  1
wall_10 172mm
 11
5.76415
 21
-1.0913
 31
0.0
100
AcDbText
  0
LWPOLYLINE
  5
A5
330
17
100
AcDbEntity
  8
WALLS
100
AcDbPolyline
 90
4
 70
1
 10
0.1108
 20
0.1823
 10
0.1108
 20
0.5362
 10
3.7108
 20
0.5362
 10
3.7108
 20
0.1823
  0
TEXT
  5
A6
330
17
100
AcDbEntity
  8
LABELS
100
AcDbText
 10
1.9107999999999998
 20
0.35925
 30
0.0
 40
0.06
  1
wall_11 188mm
 11
1.9107999999999998
 21
0.35925
 31
0.0
100
AcDbText
  0
LWPOLYLINE
  5
A7
330
17
100
AcDbEntity
  8
WALLS
100
AcDbPolyline
 90
4
 70
1
 10
-2.9302
 20
3.2587
 10
-2.6614
 20
3.2587
 10
-2.6614
 20
5.8087
 10
-2.9302
 20
5.8087
  0
TEXT
  5
A8
330
17
100
AcDbEntity
  8
LABELS
100
AcDbText
 10
-2.7958
 20
4.5337
 30
0.0
 40
0.06
  1
wall_12 208mm
 11
-2.7958
 21
4.5337
 31
0.0
100
AcDbText
  0
LWPOLYLINE
  5
A9
330
17
100
AcDbEntity
  8
WALLS
100
AcDbPolyline
 90
4
 70
1
 10
-2.933
 20
-3.9413
 10
-2.6214
 20
-3.9413
 10
-2.6214
 20
1.5587
 10
-2.933
 20
1.5587
  0
TEXT
  5
AA
330
17
100
AcDbEntity
  8
LABELS
100
AcDbText
 10
-2.7771999999999997
 20
-1.1913
 30
0.0
 40
0.06
  1
wall_13 208mm
 11
-2.7771999999999997
 21
-1.1913
 31
0.0
100
AcDbText
  0
LWPOLYLINE
  5
AB
330
17
100
AcDbEntity
  8
WALLS
100
AcDbPolyline
 90
4
 70
1
 10
-2.9392
 20
-3.9024
 10
-2.9392
 20
-3.6344
 10
0.9108
 20
-3.6344
 10
0.9108
 20
-3.9024
  0
TEXT
  5
AC
330
17
100
AcDbEntity
  8
LABELS
100
AcDbText
 10
-1.0142
 20
-3.7683999999999997
 30
0.0
 40
0.06
  1
wall_14 208mm
 11
-1.0142
 21
-3.7683999999999997
 31
0.0
100
AcDbText
  0
LWPOLYLINE
  5
AD
330
17
100
AcDbEntity
  8
WALLS
100
AcDbPolyline
 90
4
 70
1
 10
-0.271
 20
3.1087
 10
0.0033
 20
3.1087
 10
0.0033
 20
5.7087
 10
-0.271
 20
5.7087
  0
TEXT
  5
AE
330
17
100
AcDbEntity
  8
LABELS
100
AcDbText
 10
-0.13385
 20
4.4087
 30
0.0
 40
0.06
  1
wall_15 214mm
 11
-0.13385
 21
4.4087
 31
0.0
100
AcDbText
  0
LWPOLYLINE
  5
AF
330
17
100
AcDbEntity
  8
WALLS
100
AcDbPolyline
 90
4
 70
1
 10
5.6342
 20
1.7087
 10
5.7242
 20
1.7087
 10
5.7242
 20
5.7087
 10
5.6342
 20
5.7087
  0
TEXT
  5
B0
330
17
100
AcDbEntity
  8
LABELS
100
AcDbText
 10
5.6792
 20
3.7087000000000003
 30
0.0
 40
0.06
  1
wall_16
 11
5.6792
 21
3.7087000000000003
 31
0.0
100
AcDbText
  0
LWPOLYLINE
  5
B1
330
17
100
AcDbEntity
  8
WALLS
100
AcDbPolyline
 90
4
 70
1
 10
3.8608
 20
-0.7711
 10
3.8608
 20
-0.3672
 10
5.8108
 20
-0.3672
 10
5.8108
 20
-0.7711
  0
TEXT
  5
B2
330
17
100
AcDbEntity
  8
LABELS
100
AcDbText
 10
4.8358
 20
-0.56915
 30
0.0
 40
0.06
  1
wall_17 195mm
 11
4.8358
 21
-0.56915
 31
0.0
100
AcDbText
  0
LWPOLYLINE
  5
B3
330
17
100
AcDbEntity
  8
WALLS
100
AcDbPolyline
 90
4
 70
1
 10
-9.1892
 20
-3.9267
 10
-9.1892
 20
-3.6744
 10
-4.9892
 20
-3.6744
 10
-4.9892
 20
-3.9267
  0
TEXT
  5
B4
330
17
100
AcDbEntity
  8
LABELS
100
AcDbText
 10
-7.0892
 20
-3.80055
 30
0.0
 40
0.06
  1
wall_18 192mm
 11
-7.0892
 21
-3.80055
 31
0.0
100
AcDbText
  0
LWPOLYLINE
  5
B5
330
17
100
AcDbEntity
  8
WALLS
100
AcDbPolyline
 90
4
 70
1
 10
7.084
 20
-0.2413
 10
7.2443
 20
-0.2413
 10
7.2443
 20
1.5587
 10
7.084
 20
1.5587
  0
TEXT
  5
B6
330
17
100
AcDbEntity
  8
LABELS
100
AcDbText
 10
7.164149999999999
 20
0.6587
 30
0.0
 40
0.06
  1
wall_19 100mm
 11
7.164149999999999
 21
0.6587
 31
0.0
100
AcDbText
  0
LWPOLYLINE
  5
B7
330
17
100
AcDbEntity
  8
WALLS
100
AcDbPolyline
 90
4
 70
1
 10
0.9108
 20
6.7488
 10
0.9108
 20
6.8388
 10
5.3108
 20
6.8388
 10
5.3108
 20
6.7488
  0
TEXT
  5
B8
330
17
100
AcDbEntity
  8
LABELS
100
AcDbText
 10
3.1108000000000002
 20
6.7938
 30
0.0
 40
0.06
  1
wall_20
 11
3.1108000000000002
 21
6.7938
 31
0.0
100
AcDbText
  0
LWPOLYLINE
  5
B9
330
17
100
AcDbEntity
  8
WALLS
100
AcDbPolyline
 90
4
 70
1
 10
-5.0841
 20
-3.9913
 10
-4.773
 20
-3.9913
 10
-4.773
 20
-2.3913
 10
-5.0841
 20
-2.3913
  0
TEXT
  5
BA
330
17
100
AcDbEntity
  8
LABELS
100
AcDbText
 10
-4.9285499999999995
 20
-3.1913
 30
0.0
 40
0.06
  1
wall_21 251mm
 11
-4.9285499999999995
 21
-3.1913
 31
0.0
100
AcDbText
  0
LWPOLYLINE
  5
BB
330
17
100
AcDbEntity
  8
WALLS
100
AcDbPolyline
 90
4
 70
1
 10
-4.8892
 20
-0.7195
 10
-4.8892
 20
-0.6295
 10
-2.9392
 20
-0.6295
 10
-2.9392
 20
-0.7195
  0
TEXT
  5
BC
330
17
100
AcDbEntity
  8
LABELS
100
AcDbText
 10
-3.9142
 20
-0.6745
 30
0.0
 40
0.06
  1
wall_22
 11
-3.9142
 21
-0.6745
 31
0.0
100
AcDbText
  0
LWPOLYLINE
  5
BD
330
17
100
AcDbEntity
  8
WALLS
100
AcDbPolyline
 90
4
 70
1
 10
-2.9702
 20
1.7087
 10
-2.8802
 20
1.7087
 10
-2.8802
 20
3.1087
 10
-2.9702
 20
3.1087
  0
TEXT
  5
BE
330
17
100
AcDbEntity
  8
LABELS
100
AcDbText
 10
-2.9252000000000002
 20
2.4087
 30
0.0
 40
0.06
  1
wall_23
 11
-2.9252000000000002
 21
2.4087
 31
0.0
100
AcDbText
  0
LWPOLYLINE
  5
BF
330
17
100
AcDbEntity
  8
WALLS
100
AcDbPolyline
 90
4
 70
1
 10
1.4621
 20
0.4087
 10
1.7021
 20
0.4087
 10
1.7021
 20
1.7087
 10
1.4621
 20
1.7087
  0
TEXT
  5
C0
330
17
100
AcDbEntity
  8
LABELS
100
AcDbText
 10
1.5821
 20
1.0587
 30
0.0
 40
0.06
  1
wall_24 180mm
 11
1.5821
 21
1.0587
 31
0.0
100
AcDbText
  0
LWPOLYLINE
  5
C1
330
17
100
AcDbEntity
  8
WALLS
100
AcDbPolyline
 90
4
 70
1
 10
-0.938
 20
1.7087
 10
-0.848
 20
1.7087
 10
-0.848
 20
3.1087
 10
-0.938
 20
3.1087
  0
TEXT
  5
C2
330
17
100
AcDbEntity
  8
LABELS
100
AcDbText
 10
-0.893
 20
2.4087
 30
0.0
 40
0.06
  1
wall_25
 11
-0.893
 21
2.4087
 31
0.0
100
AcDbText
  0
LWPOLYLINE
  5
C3
330
17
100
AcDbEntity
  8
WALLS
100
AcDbPolyline
 90
4
 70
1
 10
-1.0892
 20
3.0387
 10
-1.0892
 20
3.4555
 10
0.1608
 20
3.4555
 10
0.1608
 20
3.0387
  0
TEXT
  5
C4
330
17
100
AcDbEntity
  8
LABELS
100
AcDbText
 10
-0.46419999999999995
 20
3.2470999999999997
 30
0.0
 40
0.06
  1
wall_26 217mm
 11
-0.46419999999999995
 21
3.2470999999999997
 31
0.0
100
AcDbText
  0
LWPOLYLINE
  5
C5
330
17
100
AcDbEntity
  8
WALLS
100
AcDbPolyline
 90
4
 70
1
 10
-2.9392
 20
1.4742
 10
-2.9392
 20
1.5642
 10
-1.0892
 20
1.5642
 10
-1.0892
 20
1.4742
  0
TEXT
  5
C6
330
17
100
AcDbEntity
  8
LABELS
100
AcDbText
 10
-2.0141999999999998
 20
1.5192
 30
0.0
 40
0.06
  1
wall_27
 11
-2.0141999999999998
 21
1.5192
 31
0.0
100
AcDbText
  0
LWPOLYLINE
  5
C7
330
17
100
AcDbEntity
  8
WALLS
100
AcDbPolyline
 90
4
 70
1
 10
-2.7392
 20
3.2665
 10
-2.7392
 20
3.3565
 10
-1.0892
 20
3.3565
 10
-1.0892
 20
3.2665
  0
TEXT
  5
C8
330
17
100
AcDbEntity
  8
LABELS
100
AcDbText
 10
-1.9142
 20
3.3115
 30
0.0
 40
0.06
  1
wall_28
 11
-1.9142
 21
3.3115
 31
0.0
100
AcDbText
  0
LWPOLYLINE
  5
C9
330
17
100
AcDbEntity
  8
WALLS
100
AcDbPolyline
 90
4
 70
1
 10
-3.8892
 20
0.1823
 10
-3.8892
 20
0.4304
 10
-1.6392
 20
0.4304
 10
-1.6392
 20
0.1823
  0
TEXT
  5
CA
330
17
100
AcDbEntity
  8
LABELS
100
AcDbText
 10
-2.7642
 20
0.30635
 30
0.0
 40
0.06
  1
wall_29 188mm
 11
-2.7642
 21
0.30635
 31
0.0
100
AcDbText
  0
LWPOLYLINE
  5
CB
330
17
100
AcDbEntity
  8
WALLS
100
AcDbPolyline
 90
4
 70
1
 10
-4.7892
 20
6.1062
 10
-4.7892
 20
6.1962
 10
-2.9392
 20
6.1962
 10
-2.9392
 20
6.1062
  0
TEXT
  5
CC
330
17
100
AcDbEntity
  8
LABELS
100
AcDbText
 10
-3.8642000000000003
 20
6.1512
 30
0.0
 40
0.06
  1
parapet_30
 11
-3.8642000000000003
 21
6.1512
 31
0.0
100
AcDbText
  0
LWPOLYLINE
  5
CD
330
17
100
AcDbEntity
  8
WALLS
100
AcDbPolyline
 90
4
 70
1
 10
-4.7392
 20
-5.7482
 10
-4.7392
 20
-5.6582
 10
-3.0392
 20
-5.6582
 10
-3.0392
 20
-5.7482
  0
TEXT
  5
CE
330
17
100
AcDbEntity
  8
LABELS
100
AcDbText
 10
-3.8892
 20
-5.7032
 30
0.0
 40
0.06
  1
parapet_31
 11
-3.8892
 21
-5.7032
 31
0.0
100
AcDbText
  0
LWPOLYLINE
  5
CF
330
17
100
AcDbEntity
  8
WALLS
100
AcDbPolyline
 90
4
 70
1
 10
0.8679
 20
-5.1913
 10
1.0929
 20
-5.1913
 10
1.0929
 20
-4.0413
 10
0.8679
 20
-4.0413
  0
TEXT
  5
D0
330
17
100
AcDbEntity
  8
LABELS
100
AcDbText
 10
0.9803999999999999
 20
-4.6163
 30
0.0
 40
0.06
  1
wall_32 165mm
 11
0.9803999999999999
 21
-4.6163
 31
0.0
100
AcDbText
  0
LWPOLYLINE
  5
D1
330
17
100
AcDbEntity
  8
WALLS
100
AcDbPolyline
 90
4
 70
1
 10
-0.8892
 20
4.2463
 10
-0.8892
 20
4.3363
 10
0.0108
 20
4.3363
 10
0.0108
 20
4.2463
  0
TEXT
  5
D2
330
17
100
AcDbEntity
  8
LABELS
100
AcDbText
 10
-0.4392
 20
4.2913
 30
0.0
 40
0.06
  1
wall_33
 11
-0.4392
 21
4.2913
 31
0.0
100
AcDbText
  0
LWPOLYLINE
  5
D3
330
17
100
AcDbEntity
  8
WALLS
100
AcDbPolyline
 90
4
 70
1
 10
3.8608
 20
-3.0228
 10
3.8608
 20
-2.9328
 10
5.6608
 20
-2.9328
 10
5.6608
 20
-3.0228
  0
TEXT
  5
D4
330
17
100
AcDbEntity
  8
LABELS
100
AcDbText
 10
4.7608
 20
-2.9778000000000002
 30
0.0
 40
0.06
  1
wall_34
 11
4.7608
 21
-2.9778000000000002
 31
0.0
100
AcDbText
  0
LWPOLYLINE
  5
D5
330
17
100
AcDbEntity
  8
WALLS
100
AcDbPolyline
 90
4
 70
1
 10
-8.1006
 20
3.8587
 10
-8.0106
 20
3.8587
 10
-8.0106
 20
5.7087
 10
-8.1006
 20
5.7087
  0
TEXT
  5
D6
330
17
100
AcDbEntity
  8
LABELS
100
AcDbText
 10
-8.0556
 20
4.7837
 30
0.0
 40
0.06
  1
wall_35
 11
-8.0556
 21
4.7837
 31
0.0
100
AcDbText
  0
LWPOLYLINE
  5
D7
330
17
100
AcDbEntity
  8
WALLS
100
AcDbPolyline
 90
4
 70
1
 10
-3.9503
 20
1.8087
 10
-3.8603
 20
1.8087
 10
-3.8603
 20
4.5087
 10
-3.9503
 20
4.5087
  0
TEXT
  5
D8
330
17
100
AcDbEntity
  8
LABELS
100
AcDbText
 10
-3.9053
 20
3.1587
 30
0.0
 40
0.06
  1
wall_36
 11
-3.9053
 21
3.1587
 31
0.0
100
AcDbText
  0
LWPOLYLINE
  5
D9
330
17
100
AcDbEntity
  8
WALLS
100
AcDbPolyline
 90
4
 70
1
 10
0.007
 20
-4.2413
 10
0.097
 20
-4.2413
 10
0.097
 20
-3.8413
 10
0.007
 20
-3.8413
  0
TEXT
  5
DA
330
17
100
AcDbEntity
  8
LABELS
100
AcDbText
 10
0.052000000000000005
 20
-4.0413
 30
0.0
 40
0.06
  1
wall_37
 11
0.052000000000000005
 21
-4.0413
 31
0.0
100
AcDbText
  0
LWPOLYLINE
  5
DB
330
17
100
AcDbEntity
  8
WALLS
100
AcDbPolyline
 90
4
 70
1
 10
-6.5142
 20
3.6587
 10
-6.4242
 20
3.6587
 10
-6.4242
 20
4.5087
 10
-6.5142
 20
4.5087
  0
TEXT
  5
DC
330
17
100
AcDbEntity
  8
LABELS
100
AcDbText
 10
-6.4692
 20
4.0837
 30
0.0
 40
0.06
  1
wall_38
 11
-6.4692
 21
4.0837
 31
0.0
100
AcDbText
  0
LWPOLYLINE
  5
DD
330
17
100
AcDbEntity
  8
OPENINGS
100
AcDbPolyline
 90
4
 70
1
 10
-8.564
 20
-3.9267
 10
-8.564
 20
-3.6744
 10
-5.064
 20
-3.6744
 10
-5.064
 20
-3.9267
  0
TEXT
  5
DE
330
17
100
AcDbEntity
  8
OPENINGS
100
AcDbText
 10
-6.814
 20
-3.80055
 30
0.0
 40
0.05
  1
door 3500x2525
 11
-6.814
 21
-3.80055
 31
0.0
100
AcDbText
  0
LWPOLYLINE
  5
DF
330
17
100
AcDbEntity
  8
OPENINGS
100
AcDbPolyline
 90
4
 70
1
 10
-2.933
 20
-3.141
 10
-2.6214
 20
-3.141
 10
-2.6214
 20
-0.641
 10
-2.933
 20
-0.641
  0
TEXT
  5
E0
330
17
100
AcDbEntity
  8
OPENINGS
100
AcDbText
 10
-2.7771999999999997
 20
-1.891
 30
0.0
 40
0.05
  1
arch 2500x3000
 11
-2.7771999999999997
 21
-1.891
 31
0.0
100
AcDbText
  0
LWPOLYLINE
  5
E1
330
17
100
AcDbEntity
  8
OPENINGS
100
AcDbPolyline
 90
4
 70
1
 10
-5.0991
 20
1.809
 10
-4.813
 20
1.809
 10
-4.813
 20
5.609
 10
-5.0991
 20
5.609
  0
TEXT
  5
E2
330
17
100
AcDbEntity
  8
OPENINGS
100
AcDbText
 10
-4.956049999999999
 20
3.709
 30
0.0
 40
0.05
  1
arch 3800x1875
 11
-4.956049999999999
 21
3.709
 31
0.0
100
AcDbText
  0
LWPOLYLINE
  5
E3
330
17
100
AcDbEntity
  8
OPENINGS
100
AcDbPolyline
 90
4
 70
1
 10
-2.933
 20
-0.591
 10
-2.6214
 20
-0.591
 10
-2.6214
 20
1.534
 10
-2.933
 20
1.534
  0
TEXT
  5
E4
330
17
100
AcDbEntity
  8
OPENINGS
100
AcDbText
 10
-2.7771999999999997
 20
0.47150000000000003
 30
0.0
 40
0.05
  1
door 2125x2600
 11
-2.7771999999999997
 21
0.47150000000000003
 31
0.0
100
AcDbText
  0
LWPOLYLINE
  5
E5
330
17
100
AcDbEntity
  8
OPENINGS
100
AcDbPolyline
 90
4
 70
1
 10
1.686
 20
1.5142
 10
1.686
 20
1.7567
 10
3.661
 20
1.7567
 10
3.661
 20
1.5142
  0
TEXT
  5
E6
330
17
100
AcDbEntity
  8
OPENINGS
100
AcDbText
 10
2.6734999999999998
 20
1.63545
 30
0.0
 40
0.05
  1
door 1975x2700
 11
2.6734999999999998
 21
1.63545
 31
0.0
100
AcDbText
  0
LWPOLYLINE
  5
E7
330
17
100
AcDbEntity
  8
OPENINGS
100
AcDbPolyline
 90
4
 70
1
 10
5.6212
 20
-0.391
 10
5.9071
 20
-0.391
 10
5.9071
 20
1.534
 10
5.6212
 20
1.534
  0
TEXT
  5
E8
330
17
100
AcDbEntity
  8
OPENINGS
100
AcDbText
 10
5.76415
 20
0.5715
 30
0.0
 40
0.05
  1
door 1925x2325
 11
5.76415
 21
0.5715
 31
0.0
100
AcDbText
  0
LWPOLYLINE
  5
E9
330
17
100
AcDbEntity
  8
OPENINGS
100
AcDbPolyline
 90
4
 70
1
 10
-8.1006
 20
3.884
 10
-8.0106
 20
3.884
 10
-8.0106
 20
5.609
 10
-8.1006
 20
5.609
  0
TEXT
  5
EA
330
17
100
AcDbEntity
  8
OPENINGS
100
AcDbText
 10
-8.0556
 20
4.7465
 30
0.0
 40
0.05
  1
door 1725x2125
 11
-8.0556
 21
4.7465
 31
0.0
100
AcDbText
  0
LWPOLYLINE
  5
EB
330
17
100
AcDbEntity
  8
OPENINGS
100
AcDbPolyline
 90
4
 70
1
 10
0.0845
 20
0.409
 10
0.436
 20
0.409
 10
0.436
 20
1.534
 10
0.0845
 20
1.534
  0
TEXT
  5
EC
330
17
100
AcDbEntity
  8
OPENINGS
100
AcDbText
 10
0.26025
 20
0.9715
 30
0.0
 40
0.05
  1
door 1125x2725
 11
0.26025
 21
0.9715
 31
0.0
100
AcDbText
  0
LWPOLYLINE
  5
ED
330
17
100
AcDbEntity
  8
OPENINGS
100
AcDbPolyline
 90
4
 70
1
 10
-7.614
 20
-2.3896
 10
-7.614
 20
-2.1609
 10
-6.264
 20
-2.1609
 10
-6.264
 20
-2.3896
  0
TEXT
  5
EE
330
17
100
AcDbEntity
  8
OPENINGS
100
AcDbText
 10
-6.939
 20
-2.2752499999999998
 30
0.0
 40
0.05
  1
door 1350x1925
 11
-6.939
 21
-2.2752499999999998
 31
0.0
100
AcDbText
  0
LWPOLYLINE
  5
EF
330
17
100
AcDbEntity
  8
OPENINGS
100
AcDbPolyline
 90
4
 70
1
 10
2.836
 20
5.4585
 10
2.836
 20
5.8868
 10
4.586
 20
5.8868
 10
4.586
 20
5.4585
  0
TEXT
  5
F0
330
17
100
AcDbEntity
  8
OPENINGS
100
AcDbText
 10
3.7110000000000003
 20
5.67265
 30
0.0
 40
0.05
  1
window 1750x1250
 11
3.7110000000000003
 21
5.67265
 31
0.0
100
AcDbText
  0
LWPOLYLINE
  5
F1
330
17
100
AcDbEntity
  8
OPENINGS
100
AcDbPolyline
 90
4
 70
1
 10
-5.0841
 20
-3.216
 10
-4.773
 20
-3.216
 10
-4.773
 20
-2.491
 10
-5.0841
 20
-2.491
  0
TEXT
  5
F2
330
17
100
AcDbEntity
  8
OPENINGS
100
AcDbText
 10
-4.9285499999999995
 20
-2.8535000000000004
 30
0.0
 40
0.05
  1
door 725x2475
 11
-4.9285499999999995
 21
-2.8535000000000004
 31
0.0
100
AcDbText
  0
LWPOLYLINE
  5
F3
330
17
100
AcDbEntity
  8
OPENINGS
100
AcDbPolyline
 90
4
 70
1
 10
-4.764
 20
-0.7195
 10
-4.764
 20
-0.6295
 10
-3.989
 20
-0.6295
 10
-3.989
 20
-0.7195
  0
TEXT
  5
F4
330
17
100
AcDbEntity
  8
OPENINGS
100
AcDbText
 10
-4.3765
 20
-0.6745
 30
0.0
 40
0.05
  1
door 775x2125
 11
-4.3765
 21
-0.6745
 31
0.0
100
AcDbText
  0
LWPOLYLINE
  5
F5
330
17
100
AcDbEntity
  8
OPENINGS
100
AcDbPolyline
 90
4
 70
1
 10
0.386
 20
0.1823
 10
0.386
 20
0.5362
 10
1.186
 20
0.5362
 10
1.186
 20
0.1823
  0
TEXT
  5
F6
330
17
100
AcDbEntity
  8
OPENINGS
100
AcDbText
 10
0.786
 20
0.35925
 30
0.0
 40
0.05
  1
door 800x2025
 11
0.786
 21
0.35925
 31
0.0
100
AcDbText
  0
LWPOLYLINE
  5
F7
330
17
100
AcDbEntity
  8
OPENINGS
100
AcDbPolyline
 90
4
 70
1
 10
1.4621
 20
0.509
 10
1.7021
 20
0.509
 10
1.7021
 20
1.309
 10
1.4621
 20
1.309
  0
TEXT
  5
F8
330
17
100
AcDbEntity
  8
OPENINGS
100
AcDbText
 10
1.5821
 20
0.909
 30
0.0
 40
0.05
  1
door 800x2025
 11
1.5821
 21
0.909
 31
0.0
100
AcDbText
  0
LWPOLYLINE
  5
F9
330
17
100
AcDbEntity
  8
OPENINGS
100
AcDbPolyline
 90
4
 70
1
 10
-5.0991
 20
0.634
 10
-4.813
 20
0.634
 10
-4.813
 20
1.409
 10
-5.0991
 20
1.409
  0
TEXT
  5
FA
330
17
100
AcDbEntity
  8
OPENINGS
100
AcDbText
 10
-4.956049999999999
 20
1.0215
 30
0.0
 40
0.05
  1
door 775x2000
 11
-4.956049999999999
 21
1.0215
 31
0.0
100
AcDbText
  0
LWPOLYLINE
  5
FB
330
17
100
AcDbEntity
  8
OPENINGS
100
AcDbPolyline
 90
4
 70
1
 10
-9.1875
 20
-3.241
 10
-8.889
 20
-3.241
 10
-8.889
 20
-2.491
 10
-9.1875
 20
-2.491
  0
TEXT
  5
FC
330
17
100
AcDbEntity
  8
OPENINGS
100
AcDbText
 10
-9.03825
 20
-2.866
 30
0.0
 40
0.05
  1
door 750x1950
 11
-9.03825
 21
-2.866
 31
0.0
100
AcDbText
  0
LWPOLYLINE
  5
FD
330
17
100
AcDbEntity
  8
OPENINGS
100
AcDbPolyline
 90
4
 70
1
 10
-2.239
 20
1.4742
 10
-2.239
 20
1.5642
 10
-1.514
 20
1.5642
 10
-1.514
 20
1.4742
  0
TEXT
  5
FE
330
17
100
AcDbEntity
  8
OPENINGS
100
AcDbText
 10
-1.8765
 20
1.5192
 30
0.0
 40
0.05
  1
door 725x2000
 11
-1.8765
 21
1.5192
 31
0.0
100
AcDbText
  0
LWPOLYLINE
  5
FF
330
17
100
AcDbEntity
  8
OPENINGS
100
AcDbPolyline
 90
4
 70
1
 10
-6.489
 20
3.6495
 10
-6.489
 20
3.9078
 10
-5.789
 20
3.9078
 10
-5.789
 20
3.6495
  0
TEXT
  5
100
330
17
100
AcDbEntity
  8
OPENINGS
100
AcDbText
 10
-6.138999999999999
 20
3.77865
 30
0.0
 40
0.05
  1
door 700x2025
 11
-6.138999999999999
 21
3.77865
 31
0.0
100
AcDbText
  0
LWPOLYLINE
  5
101
330
17
100
AcDbEntity
  8
OPENINGS
100
AcDbPolyline
 90
4
 70
1
 10
3.911
 20
1.5142
 10
3.911
 20
1.7567
 10
4.611
 20
1.7567
 10
4.611
 20
1.5142
  0
TEXT
  5
102
330
17
100
AcDbEntity
  8
OPENINGS
100
AcDbText
 10
4.261
 20
1.63545
 30
0.0
 40
0.05
  1
door 700x2000
 11
4.261
 21
1.63545
 31
0.0
100
AcDbText
  0
LWPOLYLINE
  5
103
330
17
100
AcDbEntity
  8
OPENINGS
100
AcDbPolyline
 90
4
 70
1
 10
2.261
 20
-3.9267
 10
2.261
 20
-3.6744
 10
2.961
 20
-3.6744
 10
2.961
 20
-3.9267
  0
TEXT
  5
104
330
17
100
AcDbEntity
  8
OPENINGS
100
AcDbText
 10
2.6109999999999998
 20
-3.80055
 30
0.0
 40
0.05
  1
arch 700x2000
 11
2.6109999999999998
 21
-3.80055
 31
0.0
100
AcDbText
  0
LWPOLYLINE
  5
105
330
17
100
AcDbEntity
  8
OPENINGS
100
AcDbPolyline
 90
4
 70
1
 10
1.486
 20
-3.9267
 10
1.486
 20
-3.6744
 10
2.236
 20
-3.6744
 10
2.236
 20
-3.9267
  0
TEXT
  5
106
330
17
100
AcDbEntity
  8
OPENINGS
100
AcDbText
 10
1.8610000000000002
 20
-3.80055
 30
0.0
 40
0.05
  1
door 750x1850
 11
1.8610000000000002
 21
-3.80055
 31
0.0
100
AcDbText
  0
LWPOLYLINE
  5
107
330
17
100
AcDbEntity
  8
OPENINGS
100
AcDbPolyline
 90
4
 70
1
 10
-0.271
 20
4.284
 10
0.0033
 20
4.284
 10
0.0033
 20
4.934
 10
-0.271
 20
4.934
  0
TEXT
  5
108
330
17
100
AcDbEntity
  8
OPENINGS
100
AcDbText
 10
-0.13385
 20
4.609
 30
0.0
 40
0.05
  1
door 650x2000
 11
-0.13385
 21
4.609
 31
0.0
100
AcDbText
  0
LWPOLYLINE
  5
109
330
17
100
AcDbEntity
  8
OPENINGS
100
AcDbPolyline
 90
4
 70
1
 10
-6.839
 20
5.4585
 10
-6.839
 20
5.8868
 10
-5.639
 20
5.8868
 10
-5.639
 20
5.4585
  0
TEXT
  5
10A
330
17
100
AcDbEntity
  8
OPENINGS
100
AcDbText
 10
-6.239000000000001
 20
5.67265
 30
0.0
 40
0.05
  1
window 1200x675
 11
-6.239000000000001
 21
5.67265
 31
0.0
100
AcDbText
  0
LWPOLYLINE
  5
10B
330
17
100
AcDbEntity
  8
OPENINGS
100
AcDbPolyline
 90
4
 70
1
 10
-9.1875
 20
1.284
 10
-8.889
 20
1.284
 10
-8.889
 20
1.759
 10
-9.1875
 20
1.759
  0
TEXT
  5
10C
330
17
100
AcDbEntity
  8
OPENINGS
100
AcDbText
 10
-9.03825
 20
1.5215
 30
0.0
 40
0.05
  1
window 475x1250
 11
-9.03825
 21
1.5215
 31
0.0
100
AcDbText
  0
LWPOLYLINE
  5
10D
330
17
100
AcDbEntity
  8
SLABS
100
AcDbPolyline
 90
4
 70
1
 10
-9.071
 20
49996.303
 10
-5.171
 20
49996.303
 10
-5.171
 20
49999.952999999994
 10
-9.071
 20
49999.952999999994
  0
TEXT
  5
10E
330
17
100
AcDbEntity
  8
SLABS
100
AcDbText
 10
-7.121
 20
49998.128
 30
0.0
 40
0.08
  1
floor_00 14.44 m2
 11
-7.121
 21
49998.128
 31
0.0
100
AcDbText
  0
LWPOLYLINE
  5
10F
330
17
100
AcDbEntity
  8
SLABS
100
AcDbPolyline
 90
4
 70
1
 10
-9.0
 20
0.0020000000000000018
 10
-5.1
 20
0.0020000000000000018
 10
-5.1
 20
3.6020000000000003
 10
-9.0
 20
3.6020000000000003
  0
TEXT
  5
110
330
17
100
AcDbEntity
  8
SLABS
100
AcDbText
 10
-7.05
 20
1.802
 30
0.0
 40
0.08
  1
floor_01 14.34 m2
 11
-7.05
 21
1.802
 31
0.0
100
AcDbText
  0
LWPOLYLINE
  5
111
330
17
100
AcDbEntity
  8
SLABS
100
AcDbPolyline
 90
4
 70
1
 10
1.6580000000000001
 20
2.106
 10
4.808
 20
2.106
 10
4.808
 20
5.656
 10
1.6580000000000001
 20
5.656
  0
TEXT
  5
112
330
17
100
AcDbEntity
  8
SLABS
100
AcDbText
 10
3.233
 20
3.881
 30
0.0
 40
0.08
  1
floor_02 11.19 m2
 11
3.233
 21
3.881
 31
0.0
100
AcDbText
  0
LWPOLYLINE
  5
113
330
17
100
AcDbEntity
  8
SLABS
100
AcDbPolyline
 90
4
 70
1
 10
-4.636
 20
-0.06800000000000006
 10
0.31400000000000006
 20
-0.06800000000000006
 10
0.31400000000000006
 20
2.682
 10
-4.636
 20
2.682
  0
TEXT
  5
114
330
17
100
AcDbEntity
  8
SLABS
100
AcDbText
 10
-2.161
 20
1.307
 30
0.0
 40
0.08
  1
floor_03 8.43 m2
 11
-2.161
 21
1.307
 31
0.0
100
AcDbText
  0
LWPOLYLINE
  5
115
330
17
100
AcDbEntity
  8
SLABS
100
AcDbPolyline
 90
4
 70
1
 10
1.592
 20
49996.268000000004
 10
3.592
 20
49996.268000000004
 10
3.592
 20
49999.968
 10
1.592
 20
49999.968
  0
TEXT
  5
116
330
17
100
AcDbEntity
  8
SLABS
100
AcDbText
 10
2.592
 20
49998.118
 30
0.0
 40
0.08
  1
floor_04 7.51 m2
 11
2.592
 21
49998.118
 31
0.0
100
AcDbText
  0
LWPOLYLINE
  5
117
330
17
100
AcDbEntity
  8
SLABS
100
AcDbPolyline
 90
4
 70
1
 10
5.789
 20
49994.992
 10
7.289
 20
49994.992
 10
7.289
 20
49999.941999999995
 10
5.789
 20
49999.941999999995
  0
TEXT
  5
118
330
17
100
AcDbEntity
  8
SLABS
100
AcDbText
 10
6.539
 20
49997.467
 30
0.0
 40
0.08
  1
floor_05 7.33 m2
 11
6.539
 21
49997.467
 31
0.0
100
AcDbText
  0
LWPOLYLINE
  5
119
330
17
100
AcDbEntity
  8
SLABS
100
AcDbPolyline
 90
4
 70
1
 10
1.037
 20
49995.019
 10
5.787
 20
49995.019
 10
5.787
 20
49996.069
 10
1.037
 20
49996.069
  0
TEXT
  5
11A
330
17
100
AcDbEntity
  8
SLABS
100
AcDbText
 10
3.412
 20
49995.544
 30
0.0
 40
0.08
  1
floor_06 5.06 m2
 11
3.412
 21
49995.544
 31
0.0
100
AcDbText
  0
LWPOLYLINE
  5
11B
330
17
100
AcDbEntity
  8
SLABS
100
AcDbPolyline
 90
4
 70
1
 10
-1.11
 20
2.143
 10
3.79
 20
2.143
 10
3.79
 20
5.992999999999999
 10
-1.11
 20
5.992999999999999
  0
TEXT
  5
11C
330
17
100
AcDbEntity
  8
SLABS
100
AcDbText
 10
1.34
 20
4.068
 30
0.0
 40
0.08
  1
floor_07 5.03 m2
 11
1.34
 21
4.068
 31
0.0
100
AcDbText
  0
LWPOLYLINE
  5
11D
330
17
100
AcDbEntity
  8
SLABS
100
AcDbPolyline
 90
4
 70
1
 10
-8.079
 20
3.8840000000000003
 10
-5.079
 20
3.8840000000000003
 10
-5.079
 20
5.634
 10
-8.079
 20
5.634
  0
TEXT
  5
11E
330
17
100
AcDbEntity
  8
SLABS
100
AcDbText
 10
-6.579
 20
4.759
 30
0.0
 40
0.08
  1
floor_08 4.81 m2
 11
-6.579
 21
4.759
 31
0.0
100
AcDbText
  0
LWPOLYLINE
  5
11F
330
17
100
AcDbEntity
  8
SLABS
100
AcDbPolyline
 90
4
 70
1
 10
-2.641
 20
3.258
 10
-0.2410000000000001
 20
3.258
 10
-0.2410000000000001
 20
5.508
 10
-2.641
 20
5.508
  0
TEXT
  5
120
330
17
100
AcDbEntity
  8
SLABS
100
AcDbText
 10
-1.441
 20
4.383
 30
0.0
 40
0.08
  1
floor_09 4.47 m2
 11
-1.441
 21
4.383
 31
0.0
100
AcDbText
  0
LWPOLYLINE
  5
121
330
17
100
AcDbEntity
  8
SLABS
100
AcDbPolyline
 90
4
 70
1
 10
0.269
 20
49996.289000000004
 10
1.419
 20
49996.289000000004
 10
1.419
 20
49999.939
 10
0.269
 20
49999.939
  0
TEXT
  5
122
330
17
100
AcDbEntity
  8
SLABS
100
AcDbText
 10
0.844
 20
49998.114
 30
0.0
 40
0.08
  1
floor_10 4.27 m2
 11
0.844
 21
49998.114
 31
0.0
100
AcDbText
  0
LWPOLYLINE
  5
123
330
17
100
AcDbEntity
  8
SLABS
100
AcDbPolyline
 90
4
 70
1
 10
3.8520000000000003
 20
49996.96799999999
 10
5.602
 20
49996.96799999999
 10
5.602
 20
49999.318
 10
3.8520000000000003
 20
49999.318
  0
TEXT
  5
124
330
17
100
AcDbEntity
  8
SLABS
100
AcDbText
 10
4.727
 20
49998.143
 30
0.0
 40
0.08
  1
floor_11 3.82 m2
 11
4.727
 21
49998.143
 31
0.0
100
AcDbText
  0
LWPOLYLINE
  5
125
330
17
100
AcDbEntity
  8
SLABS
100
AcDbPolyline
 90
4
 70
1
 10
1.6719999999999997
 20
0.4039999999999999
 10
3.622
 20
0.4039999999999999
 10
3.622
 20
1.904
 10
1.6719999999999997
 20
1.904
  0
TEXT
  5
126
330
17
100
AcDbEntity
  8
SLABS
100
AcDbText
 10
2.647
 20
1.154
 30
0.0
 40
0.08
  1
floor_12 3.02 m2
 11
2.647
 21
1.154
 31
0.0
100
AcDbText
  0
LWPOLYLINE
  5
127
330
17
100
AcDbEntity
  8
SLABS
100
AcDbPolyline
 90
4
 70
1
 10
3.85
 20
0.0
 10
5.65
 20
0.0
 10
5.65
 20
1.5
 10
3.85
 20
1.5
  0
TEXT
  5
128
330
17
100
AcDbEntity
  8
SLABS
100
AcDbText
 10
4.75
 20
0.75
 30
0.0
 40
0.08
  1
floor_13 2.87 m2
 11
4.75
 21
0.75
 31
0.0
100
AcDbText
  0
LWPOLYLINE
  5
129
330
17
100
AcDbEntity
  8
SLABS
100
AcDbPolyline
 90
4
 70
1
 10
4.977
 20
1.747
 10
5.677
 20
1.747
 10
5.677
 20
5.647
 10
4.977
 20
5.647
  0
TEXT
  5
12A
330
17
100
AcDbEntity
  8
SLABS
100
AcDbText
 10
5.327
 20
3.697
 30
0.0
 40
0.08
  1
floor_14 2.76 m2
 11
5.327
 21
3.697
 31
0.0
100
AcDbText
  0
LWPOLYLINE
  5
12B
330
17
100
AcDbEntity
  8
SLABS
100
AcDbPolyline
 90
4
 70
1
 10
5.86
 20
-0.020000000000000018
 10
7.31
 20
-0.020000000000000018
 10
7.31
 20
1.53
 10
5.86
 20
1.53
  0
TEXT
  5
12C
330
17
100
AcDbEntity
  8
SLABS
100
AcDbText
 10
6.585
 20
0.755
 30
0.0
 40
0.08
  1
floor_15 2.28 m2
 11
6.585
 21
0.755
 31
0.0
100
AcDbText
  0
LWPOLYLINE
  5
12D
330
17
100
AcDbEntity
  8
SLABS
100
AcDbPolyline
 90
4
 70
1
 10
0.347
 20
-0.0010000000000000009
 10
1.447
 20
-0.0010000000000000009
 10
1.447
 20
1.499
 10
0.347
 20
1.499
  0
TEXT
  5
12E
330
17
100
AcDbEntity
  8
SLABS
100
AcDbText
 10
0.897
 20
0.749
 30
0.0
 40
0.08
  1
floor_16 1.77 m2
 11
0.897
 21
0.749
 31
0.0
100
AcDbText
  0
LWPOLYLINE
  5
12F
330
17
100
AcDbEntity
  8
SLABS
100
AcDbPolyline
 90
4
 70
1
 10
0.29400000000000004
 20
1.6950000000000003
 10
1.494
 20
1.6950000000000003
 10
1.494
 20
2.995
 10
0.29400000000000004
 20
2.995
  0
TEXT
  5
130
330
17
100
AcDbEntity
  8
SLABS
100
AcDbText
 10
0.894
 20
2.345
 30
0.0
 40
0.08
  1
floor_17 1.57 m2
 11
0.894
 21
2.345
 31
0.0
100
AcDbText
  0
LWPOLYLINE
  5
131
330
17
100
AcDbEntity
  8
SLABS
100
AcDbPolyline
 90
4
 70
1
 10
-0.03500000000000014
 20
-0.07299999999999995
 10
3.415
 20
-0.07299999999999995
 10
3.415
 20
3.027
 10
-0.03500000000000014
 20
3.027
  0
TEXT
  5
132
330
17
100
AcDbEntity
  8
SLABS
100
AcDbText
 10
1.69
 20
1.477
 30
0.0
 40
0.08
  1
floor_18 1.53 m2
 11
1.69
 21
1.477
 31
0.0
100
AcDbText
  0
LWPOLYLINE
  5
133
330
17
100
AcDbEntity
  8
SLABS
100
AcDbPolyline
 90
4
 70
1
 10
-4.598000000000001
 20
49998.753
 10
-1.6480000000000001
 20
49998.753
 10
-1.6480000000000001
 20
50000.353
 10
-4.598000000000001
 20
50000.353
  0
TEXT
  5
134
330
17
100
AcDbEntity
  8
SLABS
100
AcDbText
 10
-3.123
 20
49999.553
 30
0.0
 40
0.08
  1
floor_19 1.52 m2
 11
-3.123
 21
49999.553
 31
0.0
100
AcDbText
  0
LWPOLYLINE
  5
135
330
17
100
AcDbEntity
  8
SLABS
100
AcDbPolyline
 90
4
 70
1
 10
-9.449
 20
0.4219999999999997
 10
-5.2490000000000006
 20
0.4219999999999997
 10
-5.2490000000000006
 20
4.572
 10
-9.449
 20
4.572
  0
TEXT
  5
136
330
17
100
AcDbEntity
  8
SLABS
100
AcDbText
 10
-7.349
 20
2.497
 30
0.0
 40
0.08
  1
floor_20 1.23 m2
 11
-7.349
 21
2.497
 31
0.0
100
AcDbText
  0
LWPOLYLINE
  5
137
330
17
100
AcDbEntity
  8
SLABS
100
AcDbPolyline
 90
4
 70
1
 10
-9.35
 20
49995.854
 10
-5.15
 20
49995.854
 10
-5.15
 20
49999.604
 10
-9.35
 20
49999.604
  0
TEXT
  5
138
330
17
100
AcDbEntity
  8
SLABS
100
AcDbText
 10
-7.25
 20
49997.729
 30
0.0
 40
0.08
  1
floor_21 1.12 m2
 11
-7.25
 21
49997.729
 31
0.0
100
AcDbText
  0
LWPOLYLINE
  5
139
330
17
100
AcDbEntity
  8
SLABS
100
AcDbPolyline
 90
4
 70
1
 10
4.888
 20
1.7150000000000003
 10
5.7379999999999995
 20
1.7150000000000003
 10
5.7379999999999995
 20
5.8149999999999995
 10
4.888
 20
5.8149999999999995
  0
TEXT
  5
13A
330
17
100
AcDbEntity
  8
SLABS
100
AcDbText
 10
5.313
 20
3.765
 30
0.0
 40
0.08
  1
floor_22 0.9 m2
 11
5.313
 21
3.765
 31
0.0
100
AcDbText
  0
LWPOLYLINE
  5
13B
330
17
100
AcDbEntity
  8
SLABS
100
AcDbPolyline
 90
4
 70
1
 10
3.815
 20
49999.598999999995
 10
5.615
 20
49999.598999999995
 10
5.615
 20
49999.949
 10
3.815
 20
49999.949
  0
TEXT
  5
13C
330
17
100
AcDbEntity
  8
SLABS
100
AcDbText
 10
4.715
 20
49999.774
 30
0.0
 40
0.08
  1
floor_23 0.72 m2
 11
4.715
 21
49999.774
 31
0.0
100
AcDbText
  0
LWPOLYLINE
  5
13D
330
17
100
AcDbEntity
  8
SLABS
100
AcDbPolyline
 90
4
 70
1
 10
-2.776
 20
49996.551999999996
 10
-2.026
 20
49996.551999999996
 10
-2.026
 20
49998.152
 10
-2.776
 20
49998.152
  0
TEXT
  5
13E
330
17
100
AcDbEntity
  8
SLABS
100
AcDbText
 10
-2.401
 20
49997.352
 30
0.0
 40
0.08
  1
floor_24 0.61 m2
 11
-2.401
 21
49997.352
 31
0.0
100
AcDbText
  0
LWPOLYLINE
  5
13F
330
17
100
AcDbEntity
  8
SLABS
100
AcDbPolyline
 90
4
 70
1
 10
-2.213
 20
49996.475999999995
 10
-1.563
 20
49996.475999999995
 10
-1.563
 20
49999.826
 10
-2.213
 20
49999.826
  0
TEXT
  5
140
330
17
100
AcDbEntity
  8
SLABS
100
AcDbText
 10
-1.888
 20
49998.151
 30
0.0
 40
0.08
  1
floor_25 0.53 m2
 11
-1.888
 21
49998.151
 31
0.0
100
AcDbText
  0
LWPOLYLINE
  5
141
330
17
100
AcDbEntity
  8
SLABS
100
AcDbPolyline
 90
4
 70
1
 10
1.661
 20
-0.0020000000000000018
 10
3.661
 20
-0.0020000000000000018
 10
3.661
 20
0.198
 10
1.661
 20
0.198
  0
TEXT
  5
142
330
17
100
AcDbEntity
  8
SLABS
100
AcDbText
 10
2.661
 20
0.098
 30
0.0
 40
0.08
  1
floor_26 0.5 m2
 11
2.661
 21
0.098
 31
0.0
100
AcDbText
  0
LWPOLYLINE
  5
143
330
17
100
AcDbEntity
  8
SLABS
100
AcDbPolyline
 90
4
 70
1
 10
0.694
 20
49995.805
 10
1.944
 20
49995.805
 10
1.944
 20
49999.555
 10
0.694
 20
49999.555
  0
TEXT
  5
144
330
17
100
AcDbEntity
  8
SLABS
100
AcDbText
 10
1.319
 20
49997.68
 30
0.0
 40
0.08
  1
floor_27 0.48 m2
 11
1.319
 21
49997.68
 31
0.0
100
AcDbText
  0
LWPOLYLINE
  5
145
330
17
100
AcDbEntity
  8
SLABS
100
AcDbPolyline
 90
4
 70
1
 10
-2.882
 20
6.53
 10
-1.3820000000000001
 20
6.53
 10
-1.3820000000000001
 20
7.430000000000001
 10
-2.882
 20
7.430000000000001
  0
TEXT
  5
146
330
17
100
AcDbEntity
  8
SLABS
100
AcDbText
 10
-2.132
 20
6.98
 30
0.0
 40
0.08
  1
floor_28 0.35 m2
 11
-2.132
 21
6.98
 31
0.0
100
AcDbText
  0
LWPOLYLINE
  5
147
330
17
100
AcDbEntity
  8
SLABS
100
AcDbPolyline
 90
4
 70
1
 10
-8.938
 20
3.793
 10
-8.638
 20
3.793
 10
-8.638
 20
5.043
 10
-8.938
 20
5.043
  0
TEXT
  5
148
330
17
100
AcDbEntity
  8
SLABS
100
AcDbText
 10
-8.788
 20
4.418
 30
0.0
 40
0.08
  1
floor_29 0.32 m2
 11
-8.788
 21
4.418
 31
0.0
100
AcDbText
  0
LWPOLYLINE
  5
149
330
17
100
AcDbEntity
  8
SLABS
100
AcDbPolyline
 90
4
 70
1
 10
0.2
 20
49997.1
 10
0.25
 20
49997.1
 10
0.25
 20
49999.950000000004
 10
0.2
 20
49999.950000000004
  0
TEXT
  5
14A
330
17
100
AcDbEntity
  8
SLABS
100
AcDbText
 10
0.225
 20
49998.525
 30
0.0
 40
0.08
  1
floor_30 0.29 m2
 11
0.225
 21
49998.525
 31
0.0
100
AcDbText
  0
LWPOLYLINE
  5
14B
330
17
100
AcDbEntity
  8
SLABS
100
AcDbPolyline
 90
4
 70
1
 10
-10.424999999999999
 20
3.8659999999999997
 10
-9.725
 20
3.8659999999999997
 10
-9.725
 20
5.266
 10
-10.424999999999999
 20
5.266
  0
TEXT
  5
14C
330
17
100
AcDbEntity
  8
SLABS
100
AcDbText
 10
-10.075
 20
4.566
 30
0.0
 40
0.08
  1
floor_31 0.27 m2
 11
-10.075
 21
4.566
 31
0.0
100
AcDbText
  0
LWPOLYLINE
  5
14D
330
17
100
AcDbEntity
  8
SLABS
100
AcDbPolyline
 90
4
 70
1
 10
-4.983
 20
-0.044999999999999984
 10
-4.233
 20
-0.044999999999999984
 10
-4.233
 20
0.7050000000000001
 10
-4.983
 20
0.7050000000000001
  0
TEXT
  5
14E
330
17
100
AcDbEntity
  8
SLABS
100
AcDbText
 10
-4.608
 20
0.33
 30
0.0
 40
0.08
  1
floor_32 0.26 m2
 11
-4.608
 21
0.33
 31
0.0
100
AcDbText
  0
LWPOLYLINE
  5
14F
330
17
100
AcDbEntity
  8
SLABS
100
AcDbPolyline
 90
4
 70
1
 10
-3.8770000000000002
 20
2.262
 10
-2.927
 20
2.262
 10
-2.927
 20
2.512
 10
-3.8770000000000002
 20
2.512
  0
TEXT
  5
150
330
17
100
AcDbEntity
  8
SLABS
100
AcDbText
 10
-3.402
 20
2.387
 30
0.0
 40
0.08
  1
floor_33 0.26 m2
 11
-3.402
 21
2.387
 31
0.0
100
AcDbText
  0
TEXT
  5
151
330
17
100
AcDbEntity
  8
DIMENSIONS
100
AcDbText
 10
0.0
 20
0.0
 30
0.0
 40
0.15
  1
clear height 3485 mm   walls 39   plan cut at 1200 mm
 11
0.0
 21
0.0
 31
0.0
100
AcDbText
  0
ENDSEC
  0
SECTION
  2
OBJECTS
  0
DICTIONARY
  5
A
330
0
100
AcDbDictionary
281
1
  3
ACAD_COLOR
350
B
  3
ACAD_GROUP
350
C
  3
ACAD_LAYOUT
350
D
  3
ACAD_MATERIAL
350
E
  3
ACAD_MLEADERSTYLE
350
F
  3
ACAD_MLINESTYLE
350
10
  3
ACAD_PLOTSETTINGS
350
11
  3
ACAD_PLOTSTYLENAME
350
12
  3
ACAD_SCALELIST
350
14
  3
ACAD_TABLESTYLE
350
15
  3
ACAD_VISUALSTYLE
350
16
  3
EZDXF_META
350
2D
  0
DICTIONARY
  5
B
330
A
100
AcDbDictionary
281
1
  0
DICTIONARY
  5
C
330
A
100
AcDbDictionary
281
1
  0
DICTIONARY
  5
D
330
A
100
AcDbDictionary
281
1
  3
Model
350
1A
  3
Layout1
350
1E
  0
DICTIONARY
  5
E
330
A
100
AcDbDictionary
281
1
  3
ByBlock
350
1F
  3
ByLayer
350
20
  3
Global
350
21
  0
DICTIONARY
  5
F
330
A
100
AcDbDictionary
281
1
  3
Standard
350
2C
  0
DICTIONARY
  5
10
330
A
100
AcDbDictionary
281
1
  3
Standard
350
22
  0
DICTIONARY
  5
11
330
A
100
AcDbDictionary
281
1
  0
ACDBDICTIONARYWDFLT
  5
12
330
A
100
AcDbDictionary
281
1
  3
Normal
350
13
100
AcDbDictionaryWithDefault
340
13
  0
ACDBPLACEHOLDER
  5
13
330
12
  0
DICTIONARY
  5
14
330
A
100
AcDbDictionary
281
1
  0
DICTIONARY
  5
15
330
A
100
AcDbDictionary
281
1
  0
DICTIONARY
  5
16
330
A
100
AcDbDictionary
281
1
  3
2dWireframe
350
5A
  3
Basic
350
5B
  3
Brighten
350
5C
  3
ColorChange
350
5D
  3
Conceptual
350
5E
  3
Dim
350
5F
  3
EdgeColorOff
350
60
  3
Facepattern
350
61
  3
Flat
350
62
  3
FlatWithEdges
350
63
  3
Gouraud
350
64
  3
GouraudWithEdges
350
65
  3
Hidden
350
66
  3
JitterOff
350
67
  3
Linepattern
350
68
  3
Modeling
350
69
  3
OverhangOff
350
6A
  3
Realistic
350
6B
  3
Shaded
350
6C
  3
Shaded with edges
350
6D
  3
Shades of Gray
350
6E
  3
Sketchy
350
6F
  3
Thicken
350
70
  3
Wireframe
350
71
  3
X-Ray
350
72
  0
LAYOUT
  5
1A
330
D
100
AcDbPlotSettings
  1

  4
A3
  6

 40
7.5
 41
20.0
 42
7.5
 43
20.0
 44
420.0
 45
297.0
 46
0.0
 47
0.0
 48
0.0
 49
0.0
140
0.0
141
0.0
142
1.0
143
1.0
 70
1024
 72
1
 73
0
 74
5
  7

 75
16
 76
0
 77
2
 78
300
147
1.0
148
0.0
149
0.0
100
AcDbLayout
  1
Model
 70
1
 71
0
 10
0.0
 20
0.0
 11
420.0
 21
297.0
 12
0.0
 22
0.0
 32
0.0
 14
1e+20
 24
1e+20
 34
1e+20
 15
-1e+20
 25
-1e+20
 35
-1e+20
146
0.0
 13
0.0
 23
0.0
 33
0.0
 16
1.0
 26
0.0
 36
0.0
 17
0.0
 27
1.0
 37
0.0
 76
1
330
17
  0
LAYOUT
  5
1E
330
D
100
AcDbPlotSettings
  1

  4
A3
  6

 40
7.5
 41
20.0
 42
7.5
 43
20.0
 44
420.0
 45
297.0
 46
0.0
 47
0.0
 48
0.0
 49
0.0
140
0.0
141
0.0
142
1.0
143
1.0
 70
0
 72
1
 73
0
 74
5
  7

 75
16
 76
0
 77
2
 78
300
147
1.0
148
0.0
149
0.0
100
AcDbLayout
  1
Layout1
 70
1
 71
1
 10
0.0
 20
0.0
 11
420.0
 21
297.0
 12
0.0
 22
0.0
 32
0.0
 14
1e+20
 24
1e+20
 34
1e+20
 15
-1e+20
 25
-1e+20
 35
-1e+20
146
0.0
 13
0.0
 23
0.0
 33
0.0
 16
1.0
 26
0.0
 36
0.0
 17
0.0
 27
1.0
 37
0.0
 76
1
330
1B
  0
MATERIAL
  5
1F
102
{ACAD_REACTORS
330
E
102
}
330
E
100
AcDbMaterial
  1
ByBlock
  2

 70
0
 40
1.0
 71
1
 41
1.0
 91
-1023410177
 42
1.0
 72
1
  3

 73
1
 74
1
 75
1
 44
0.5
 73
0
 45
1.0
 46
1.0
 77
1
  4

 78
1
 79
1
170
1
 48
1.0
171
1
  6

172
1
173
1
174
1
140
1.0
141
1.0
175
1
  7

176
1
177
1
178
1
143
1.0
179
1
  8

270
1
271
1
272
1
145
1.0
146
1.0
273
1
  9

274
1
275
1
276
1
 42
1.0
 72
1
  3

 73
1
 74
1
 75
1
 94
63
  0
MATERIAL
  5
20
102
{ACAD_REACTORS
330
E
102
}
330
E
100
AcDbMaterial
  1
ByLayer
  2

 70
0
 40
1.0
 71
1
 41
1.0
 91
-1023410177
 42
1.0
 72
1
  3

 73
1
 74
1
 75
1
 44
0.5
 73
0
 45
1.0
 46
1.0
 77
1
  4

 78
1
 79
1
170
1
 48
1.0
171
1
  6

172
1
173
1
174
1
140
1.0
141
1.0
175
1
  7

176
1
177
1
178
1
143
1.0
179
1
  8

270
1
271
1
272
1
145
1.0
146
1.0
273
1
  9

274
1
275
1
276
1
 42
1.0
 72
1
  3

 73
1
 74
1
 75
1
 94
63
  0
MATERIAL
  5
21
102
{ACAD_REACTORS
330
E
102
}
330
E
100
AcDbMaterial
  1
Global
  2

 70
0
 40
1.0
 71
1
 41
1.0
 91
-1023410177
 42
1.0
 72
1
  3

 73
1
 74
1
 75
1
 44
0.5
 73
0
 45
1.0
 46
1.0
 77
1
  4

 78
1
 79
1
170
1
 48
1.0
171
1
  6

172
1
173
1
174
1
140
1.0
141
1.0
175
1
  7

176
1
177
1
178
1
143
1.0
179
1
  8

270
1
271
1
272
1
145
1.0
146
1.0
273
1
  9

274
1
275
1
276
1
 42
1.0
 72
1
  3

 73
1
 74
1
 75
1
 94
63
  0
MLINESTYLE
  5
22
102
{ACAD_REACTORS
330
10
102
}
330
10
100
AcDbMlineStyle
  2
Standard
 70
0
  3

 62
256
 51
90.0
 52
90.0
 71
2
 49
0.5
 62
256
  6
BYLAYER
 49
-0.5
 62
256
  6
BYLAYER
  0
MLEADERSTYLE
  5
2C
102
{ACAD_REACTORS
330
F
102
}
330
F
100
AcDbMLeaderStyle
179
2
170
2
171
1
172
0
 90
2
 40
0.0
 41
0.0
173
1
 91
-1056964608
 92
-2
290
1
 42
2.0
291
1
 43
8.0
  3
Standard
 44
4.0
300

342
29
174
1
175
1
176
0
178
1
 93
-1056964608
 45
4.0
292
0
297
0
 46
4.0
 94
-1056964608
 47
1.0
 49
1.0
140
1.0
294
1
141
0.0
177
0
142
1.0
295
0
296
0
143
3.75
271
0
272
9
273
9
  0
DICTIONARY
  5
2D
330
A
100
AcDbDictionary
280
1
281
1
  3
CREATED_BY_EZDXF
350
2E
  3
WRITTEN_BY_EZDXF
350
154
  0
DICTIONARYVAR
  5
2E
330
2D
100
DictionaryVariables
280
0
  1
1.4.4 @ 2026-08-24T07:28:43.646095+00:00
  0
VISUALSTYLE
  5
5A
102
{ACAD_REACTORS
330
16
102
}
330
16
100
AcDbVisualStyle
  2
2dWireframe
 70
4
 90
0
 40
0.6
 62
7
290
0
291
0
  0
VISUALSTYLE
  5
5B
102
{ACAD_REACTORS
330
16
102
}
330
16
100
AcDbVisualStyle
  2
Basic
 70
7
 90
1
 40
0.6
 62
7
290
0
291
1
  0
VISUALSTYLE
  5
5C
102
{ACAD_REACTORS
330
16
102
}
330
16
100
AcDbVisualStyle
  2
Brighten
 70
12
 90
2
 40
0.6
 62
7
290
0
291
1
  0
VISUALSTYLE
  5
5D
102
{ACAD_REACTORS
330
16
102
}
330
16
100
AcDbVisualStyle
  2
ColorChange
 70
16
 90
2
 40
0.6
 62
8
290
0
291
1
  0
VISUALSTYLE
  5
5E
102
{ACAD_REACTORS
330
16
102
}
330
16
100
AcDbVisualStyle
  2
Conceptual
 70
9
 90
3
 40
0.6
 62
7
290
0
291
0
  0
VISUALSTYLE
  5
5F
102
{ACAD_REACTORS
330
16
102
}
330
16
100
AcDbVisualStyle
  2
Dim
 70
11
 90
2
 40
0.6
 62
7
290
0
291
1
  0
VISUALSTYLE
  5
60
102
{ACAD_REACTORS
330
16
102
}
330
16
100
AcDbVisualStyle
  2
EdgeColorOff
 70
22
 90
2
 40
0.6
 62
7
290
0
291
1
  0
VISUALSTYLE
  5
61
102
{ACAD_REACTORS
330
16
102
}
330
16
100
AcDbVisualStyle
  2
Facepattern
 70
15
 90
2
 40
0.6
 62
7
290
0
291
1
  0
VISUALSTYLE
  5
62
102
{ACAD_REACTORS
330
16
102
}
330
16
100
AcDbVisualStyle
  2
Flat
 70
0
 90
2
 40
0.6
 62
7
290
0
291
1
  0
VISUALSTYLE
  5
63
102
{ACAD_REACTORS
330
16
102
}
330
16
100
AcDbVisualStyle
  2
FlatWithEdges
 70
1
 90
2
 40
0.6
 62
7
290
0
291
1
  0
VISUALSTYLE
  5
64
102
{ACAD_REACTORS
330
16
102
}
330
16
100
AcDbVisualStyle
  2
Gouraud
 70
2
 90
2
 40
0.6
 62
7
290
0
291
1
  0
VISUALSTYLE
  5
65
102
{ACAD_REACTORS
330
16
102
}
330
16
100
AcDbVisualStyle
  2
GouraudWithEdges
 70
3
 90
2
 40
0.6
 62
7
290
0
291
1
  0
VISUALSTYLE
  5
66
102
{ACAD_REACTORS
330
16
102
}
330
16
100
AcDbVisualStyle
  2
Hidden
 70
6
 90
1
 40
0.6
 62
7
290
0
291
0
  0
VISUALSTYLE
  5
67
102
{ACAD_REACTORS
330
16
102
}
330
16
100
AcDbVisualStyle
  2
JitterOff
 70
20
 90
2
 40
0.6
 62
7
290
0
291
1
  0
VISUALSTYLE
  5
68
102
{ACAD_REACTORS
330
16
102
}
330
16
100
AcDbVisualStyle
  2
Linepattern
 70
14
 90
2
 40
0.6
 62
7
290
0
291
1
  0
VISUALSTYLE
  5
69
102
{ACAD_REACTORS
330
16
102
}
330
16
100
AcDbVisualStyle
  2
Modeling
 70
10
 90
2
 40
0.6
 62
7
290
0
291
0
  0
VISUALSTYLE
  5
6A
102
{ACAD_REACTORS
330
16
102
}
330
16
100
AcDbVisualStyle
  2
OverhangOff
 70
21
 90
2
 40
0.6
 62
7
290
0
291
1
  0
VISUALSTYLE
  5
6B
102
{ACAD_REACTORS
330
16
102
}
330
16
100
AcDbVisualStyle
  2
Realistic
 70
8
 90
2
 40
0.6
 62
7
290
0
291
0
  0
VISUALSTYLE
  5
6C
102
{ACAD_REACTORS
330
16
102
}
330
16
100
AcDbVisualStyle
  2
Shaded
 70
27
 90
2
 40
0.6
 62
7
290
0
291
0
  0
VISUALSTYLE
  5
6D
102
{ACAD_REACTORS
330
16
102
}
330
16
100
AcDbVisualStyle
  2
Shaded with edges
 70
26
 90
2
 40
0.6
 62
7
290
0
291
0
  0
VISUALSTYLE
  5
6E
102
{ACAD_REACTORS
330
16
102
}
330
16
100
AcDbVisualStyle
  2
Shades of Gray
 70
23
 90
2
 40
0.6
 62
7
290
0
291
0
  0
VISUALSTYLE
  5
6F
102
{ACAD_REACTORS
330
16
102
}
330
16
100
AcDbVisualStyle
  2
Sketchy
 70
24
 90
1
 40
0.6
 62
7
290
0
291
0
  0
VISUALSTYLE
  5
70
102
{ACAD_REACTORS
330
16
102
}
330
16
100
AcDbVisualStyle
  2
Thicken
 70
13
 90
2
 40
0.6
 62
7
290
0
291
1
  0
VISUALSTYLE
  5
71
102
{ACAD_REACTORS
330
16
102
}
330
16
100
AcDbVisualStyle
  2
Wireframe
 70
5
 90
0
 40
0.6
 62
7
290
0
291
0
  0
VISUALSTYLE
  5
72
102
{ACAD_REACTORS
330
16
102
}
330
16
100
AcDbVisualStyle
  2
X-Ray
 70
25
 90
2
 40
0.5
 62
7
290
0
291
0
  0
DICTIONARYVAR
  5
154
330
2D
100
DictionaryVariables
280
0
  1
1.4.4 @ 2026-08-24T07:28:43.655092+00:00
  0
ENDSEC
  0
EOF
